<?xml version="1.0" encoding="utf-8"?>
<!-- Generator: Adobe Illustrator 22.0.0, SVG Export Plug-In . SVG Version: 6.00 Build 0)  -->
<svg version="1.1" id="Camada_1" xmlns="http://www.w3.org/2000/svg" xmlns:xlink="http://www.w3.org/1999/xlink" x="0px" y="0px"
	 viewBox="0 0 841.9 595.3" style="enable-background:new 0 0 841.9 595.3;" xml:space="preserve">
<style type="text/css">
	.st0{display:none;fill:#00A157;}
	.st1{fill:url(#SVGID_1_);}
	.st2{fill:url(#SVGID_2_);}
	.st3{fill:#9652A0;}
	.st4{fill:url(#SVGID_3_);}
	.st5{fill:url(#SVGID_4_);}
	.st6{fill:#27358F;}
	.st7{font-family:'Lato-Bold';}
	.st8{font-size:25.2609px;}
	.st9{letter-spacing:-1;}
	.st10{fill:url(#SVGID_5_);}
	.st11{fill:url(#SVGID_6_);}
	.st12{font-size:16.089px;}
	.st13{letter-spacing:3;}
	.st14{fill:url(#SVGID_7_);}
	.st15{fill:url(#SVGID_8_);}
	.st16{font-size:19.492px;}
</style>
<path class="st0" d="M513.3,412.9c-6.1,2.1-12.2,4.3-18.3,6.3c-17,5.7-34.3,7.6-52.3,6.5c-20.3-1.3-38.1-8.3-54.7-19.4
	c-1.1-0.8-2.1-1.5-2.8-2.7c13.2,4.8,26.3,9.3,40.6,9.8c16.6,0.5,32-2.7,45.3-13.6c20.6-16.8,20.2-45.3-0.9-61.5
	c-10-7.7-21.4-11.9-34.3-14.9c4.2-2.9,7.9-5.3,11.5-7.8c10.3-7.2,20.1-14.9,27.1-25.5c2.3-3.5,4.1-7.3,4.6-11.7
	c1.1-10.6-8.4-15.6-16.8-16.5C444,260,417.5,272,409,297c-9.6,28.3-4.5,54,10.8,78.6c2.6,4.2,5.6,8.2,9,13.1
	c-8.3-3.1-14.7-7.5-21-12.3c-52-39.7-42.2-110.9-9-141.4c24.4-22.4,62.9-29.8,92.2-17c20,8.7,30.3,24.2,29.7,45.8
	c-0.2,9.9-4.9,18.5-10.2,26.7c-5.5,8.4-12.3,15.6-19.9,23.1c26.2,7.8,45.3,22.1,46.7,51.2C538.4,384.6,529.6,400.9,513.3,412.9z"/>
<g>
	<linearGradient id="SVGID_1_" gradientUnits="userSpaceOnUse" x1="100.871" y1="57.0822" x2="266.3791" y2="168.2955">
		<stop  offset="0" style="stop-color:#2B3990"/>
		<stop  offset="1" style="stop-color:#1B75BC"/>
	</linearGradient>
	<path class="st1" d="M251.4,189.9c-8.8,7.8-18.9,13.2-30.2,16.2c-23.4,6.1-44.3,0.5-62.6-14.8c-19.5-16.3-29.9-37.5-30.3-63
		C127.7,94.1,148,65,180,53.1c16.7-6.2,33.8-7.4,50.9-1.7c13.2,4.4,24,12.3,32.3,23.6c8.2,11.1,12.8,23.5,15.5,36.8
		c-2.2-4.3-4.2-8.7-6.6-13c-7.2-12.6-16.6-23.1-29.5-30.2c-6.1-3.4-12.7-5.2-19.6-6c-27.1-3.2-52.5,13.6-62.7,39.3
		c-6.1,15.4-6.6,31-2.5,47c2.1,8.2,5.9,15.5,10.4,22.3c3.6,5.3,8,10.3,13.7,13.6c0.4,0.6,0.9,1.1,1.5,1.5c9,6,18.6,9.8,29.6,10.5
		c9.8,0.6,19.1-0.4,28.4-3.5C244.8,192.2,248.1,191,251.4,189.9z"/>
	<linearGradient id="SVGID_2_" gradientUnits="userSpaceOnUse" x1="159.9146" y1="97.9449" x2="278.3229" y2="182.5794">
		<stop  offset="0" style="stop-color:#8DC63F"/>
		<stop  offset="1" style="stop-color:#009444"/>
	</linearGradient>
	<path class="st2" d="M238.8,121.5l-0.5,2.6c-0.7,2.8-1.9,4.8-3.2,7.2c-1.3,2-2.2,4.3-3.9,6.4c-1.6,2.1-3.2,4.3-5.2,6.3
		c-1.1,1.1-2.2,2.1-3.4,3.1c2,1,3,1.2,5.4,2.3c11.2,5.1,11.6,24.2,0.5,33.3c-7.2,5.9-15.5,7.6-24.6,7.4c-7.7-0.2-14.8-2.7-22-5.3
		c0.4,0.6,0.9,1.1,1.5,1.5c9,6,18.6,9.8,29.6,10.5c9.8,0.6,19.1-0.4,28.4-3.5c3.3-1.1,6.6-2.3,9.9-3.4c8.8-6.5,13.6-15.3,13.1-26.2
		c-0.7-15.7-11.1-23.5-25.3-27.7c4.1-4,7.8-8,10.8-12.5c2.9-4.4,5.4-9.1,5.5-14.5c0.3-11.7-5.3-20-16.1-24.8
		c-15.8-6.9-36.7-2.9-49.9,9.2c-18,16.6-23.3,55.1,4.9,76.6c3.4,2.6,6.9,5,11.4,6.7c-1.8-2.7-3.5-4.8-4.9-7.1
		c-8.3-13.3-11.1-27.2-5.9-42.6c4.6-13.5,18.9-20,28.8-19c4.6,0.5,9.7,3.2,9.1,8.9c-0.2,2.4-1.2,4.4-2.5,6.3
		c-3.8,5.7-9.1,9.9-14.7,13.8c-2,1.4-3.9,2.7-6.2,4.2c2.7,0.8,4.1,1.3,6.5,2.2c0.8-0.6,1.7-0.9,2.6-1.6c1.8-1.3,3.5-2.8,5.1-4.3
		c2.3-2.1,3.5-3.1,4.8-4.5"/>
	<g>
		<path class="st3" d="M237.9,123.3c0,0-2.1,4.7-3.2,6.6c-1.2,1.9-2.7,4-4.3,6c-1.6,2.1-3.4,4.1-5.4,6c-2,1.9-4,3.7-6.1,5.2
			c-2.1,1.6-4.3,2.8-6.4,3.7c-2.2,0.9-4.3,1.4-6.5,1.4c-2.2,0.1-4.2-0.4-6.2-1.6c-2.2-1.2-3.7-2.7-4.4-4.6c-0.8-1.9-1.1-3.9-1-6
			c0.1-2.1,0.5-4.3,1.3-6.5c0.8-2.2,1.7-4.2,2.7-6c1.8-3.3,3.7-6.1,5.7-8.3c2-2.2,4-4,6.1-5.3c2.1-1.3,4.2-2.2,6.3-2.7
			c2.1-0.5,4.2-0.6,6.2-0.3c2.1,0.3,3.6,1,4.5,2.1c0.9,1.2,1.2,2.6,1,4.2c-0.2,1.7-0.9,3.4-2.1,5.3c-1.2,1.9-2.7,3.7-4.6,5.4
			c-1.9,1.7-4.2,3.2-6.8,4.5c-2.6,1.3-5.4,2.1-8.5,2.5c-0.6,1.4-1.1,2.9-1.4,4.3c-0.4,1.4-0.6,2-0.4,3.3c0.2,1.2,0.5,1.5,1.2,2.1
			c0.5,0.4,1.1,0.9,2,1.2c1.2,0.4,2.4,0.4,4.1,0.2c1.6-0.2,2.4-0.4,3.3-0.7c1.1-0.4,3.9-1.6,5.6-3c1.7-1.4,3.5-2.9,5-4.5
			c1.5-1.6,2.7-2.9,4.1-4.5 M208.6,130.2c-0.4,0.6-0.7,1.1-0.9,1.6c3.6-0.8,6.6-2.1,9.1-3.9c2.5-1.8,4.4-3.7,5.7-5.6
			c1.3-1.9,2.1-3.6,2.3-5.1c0.2-1.5-0.2-2.3-1.2-2.5c-1.5-0.3-3.7,1-6.4,3.7C214.5,121.3,211.6,125.2,208.6,130.2z"/>
	</g>
</g>
<g>
	<linearGradient id="SVGID_3_" gradientUnits="userSpaceOnUse" x1="523.8921" y1="90.7961" x2="689.4002" y2="202.0094">
		<stop  offset="0" style="stop-color:#2B3990"/>
		<stop  offset="1" style="stop-color:#1B75BC"/>
	</linearGradient>
	<path class="st4" d="M674.4,223.6c-8.8,7.8-18.9,13.2-30.2,16.2c-23.4,6.1-44.3,0.5-62.6-14.8c-19.5-16.3-29.9-37.5-30.3-63
		c-0.6-34.2,19.7-63.3,51.7-75.2c16.7-6.2,33.8-7.4,50.9-1.7c13.2,4.4,24,12.3,32.3,23.6c8.2,11.1,12.8,23.5,15.5,36.8
		c-2.2-4.3-4.2-8.7-6.6-13c-7.2-12.6-16.6-23.1-29.5-30.2c-6.1-3.4-12.7-5.2-19.6-6c-27.1-3.2-52.5,13.6-62.7,39.3
		c-6.1,15.4-6.6,31-2.5,47c2.1,8.2,5.9,15.5,10.4,22.3c3.6,5.3,8,10.3,13.7,13.6c0.4,0.6,0.9,1.1,1.5,1.5c9,6,18.6,9.8,29.6,10.5
		c9.8,0.6,19.1-0.4,28.4-3.5C667.8,225.9,671.1,224.7,674.4,223.6z"/>
	<linearGradient id="SVGID_4_" gradientUnits="userSpaceOnUse" x1="582.9357" y1="131.6588" x2="701.344" y2="216.2933">
		<stop  offset="0" style="stop-color:#8DC63F"/>
		<stop  offset="1" style="stop-color:#009444"/>
	</linearGradient>
	<path class="st5" d="M661.8,155.2l-0.5,2.6c-0.7,2.8-1.9,4.8-3.2,7.2c-1.3,2-2.2,4.3-3.9,6.4c-1.6,2.1-3.2,4.3-5.2,6.3
		c-1.1,1.1-2.2,2.1-3.4,3.1c2,1,3,1.2,5.4,2.3c11.2,5.1,11.6,24.2,0.5,33.3c-7.2,5.9-15.5,7.6-24.6,7.4c-7.7-0.2-14.8-2.7-22-5.3
		c0.4,0.6,0.9,1.1,1.5,1.5c9,6,18.6,9.8,29.6,10.5c9.8,0.6,19.1-0.4,28.4-3.5c3.3-1.1,6.6-2.3,9.9-3.4c8.8-6.5,13.6-15.3,13.1-26.2
		c-0.7-15.7-11.1-23.5-25.3-27.7c4.1-4,7.8-8,10.8-12.5c2.9-4.4,5.4-9.1,5.5-14.5c0.3-11.7-5.3-20-16.1-24.8
		c-15.8-6.9-36.7-2.9-49.9,9.2c-18,16.6-23.3,55.1,4.9,76.6c3.4,2.6,6.9,5,11.4,6.7c-1.8-2.7-3.5-4.8-4.9-7.1
		c-8.3-13.3-11.1-27.2-5.9-42.6c4.6-13.5,18.9-20,28.8-19c4.6,0.5,9.7,3.2,9.1,8.9c-0.2,2.4-1.2,4.4-2.5,6.3
		c-3.8,5.7-9.1,9.9-14.7,13.8c-2,1.4-3.9,2.7-6.2,4.2c2.7,0.8,4.1,1.3,6.5,2.2c0.8-0.6,1.7-0.9,2.6-1.6c1.8-1.3,3.5-2.8,5.1-4.3
		c2.3-2.1,3.5-3.1,4.8-4.5"/>
	<g>
		<path class="st3" d="M660.9,157.1c0,0-2.1,4.7-3.2,6.6c-1.2,1.9-2.7,4-4.3,6c-1.6,2.1-3.4,4.1-5.4,6c-2,1.9-4,3.7-6.1,5.2
			s-4.3,2.8-6.4,3.7c-2.2,0.9-4.3,1.4-6.5,1.4c-2.2,0.1-4.2-0.4-6.2-1.6c-2.2-1.2-3.7-2.7-4.4-4.6c-0.8-1.9-1.1-3.9-1-6
			c0.1-2.1,0.5-4.3,1.3-6.5c0.8-2.2,1.7-4.2,2.7-6c1.8-3.3,3.7-6.1,5.7-8.3c2-2.2,4-4,6.1-5.3c2.1-1.3,4.2-2.2,6.3-2.7
			c2.1-0.5,4.2-0.6,6.2-0.3c2.1,0.3,3.6,1,4.5,2.1c0.9,1.2,1.2,2.6,1,4.2c-0.2,1.7-0.9,3.4-2.1,5.3c-1.2,1.9-2.7,3.7-4.6,5.4
			c-1.9,1.7-4.2,3.2-6.8,4.5c-2.6,1.3-5.4,2.1-8.5,2.5c-0.6,1.4-1.1,2.9-1.4,4.3c-0.4,1.4-0.6,2-0.4,3.3c0.2,1.2,0.5,1.5,1.2,2.1
			c0.5,0.4,1.1,0.9,2,1.2c1.2,0.4,2.4,0.4,4.1,0.2c1.6-0.2,2.4-0.4,3.3-0.7c1.1-0.4,3.9-1.6,5.6-3c1.7-1.4,3.5-2.9,5-4.5
			c1.5-1.6,2.7-2.9,4.1-4.5 M631.6,163.9c-0.4,0.6-0.7,1.1-0.9,1.6c3.6-0.8,6.6-2.1,9.1-3.9c2.5-1.8,4.4-3.7,5.7-5.6
			c1.3-1.9,2.1-3.6,2.3-5.1c0.2-1.5-0.2-2.3-1.2-2.5c-1.5-0.3-3.7,1-6.4,3.7C637.5,155,634.6,158.9,631.6,163.9z"/>
	</g>
</g>
<text transform="matrix(1 0 0 1 29.072 229.6564)" class="st6 st7 st8 st9">Centro de educação básica da UEFS</text>
<g>
	<linearGradient id="SVGID_5_" gradientUnits="userSpaceOnUse" x1="101.0412" y1="322.4668" x2="266.5493" y2="433.6801">
		<stop  offset="0" style="stop-color:#2B3990"/>
		<stop  offset="1" style="stop-color:#1B75BC"/>
	</linearGradient>
	<path class="st10" d="M251.6,455.3c-8.8,7.8-18.9,13.2-30.2,16.2c-23.4,6.1-44.3,0.5-62.6-14.8c-19.5-16.3-29.9-37.5-30.3-63
		c-0.6-34.2,19.7-63.3,51.7-75.2c16.7-6.2,33.8-7.4,50.9-1.7c13.2,4.4,24,12.3,32.3,23.6c8.2,11.1,12.8,23.5,15.5,36.8
		c-2.2-4.3-4.2-8.7-6.6-13c-7.2-12.6-16.6-23.1-29.5-30.2c-6.1-3.4-12.7-5.2-19.6-6c-27.1-3.2-52.5,13.6-62.7,39.3
		c-6.1,15.4-6.6,31-2.5,47c2.1,8.2,5.9,15.5,10.4,22.3c3.6,5.3,8,10.3,13.7,13.6c0.4,0.6,0.9,1.1,1.5,1.5c9,6,18.6,9.8,29.6,10.5
		c9.8,0.6,19.1-0.4,28.4-3.5C245,457.6,248.3,456.4,251.6,455.3z"/>
	<linearGradient id="SVGID_6_" gradientUnits="userSpaceOnUse" x1="160.0847" y1="363.3295" x2="278.4931" y2="447.964">
		<stop  offset="0" style="stop-color:#8DC63F"/>
		<stop  offset="1" style="stop-color:#009444"/>
	</linearGradient>
	<path class="st11" d="M239,386.9l-0.5,2.6c-0.7,2.8-1.9,4.8-3.2,7.2c-1.3,2-2.2,4.3-3.9,6.4c-1.6,2.1-3.2,4.3-5.2,6.3
		c-1.1,1.1-2.2,2.1-3.4,3.1c2,1,3,1.2,5.4,2.3c11.2,5.1,11.6,24.2,0.5,33.3c-7.2,5.9-15.5,7.6-24.6,7.4c-7.7-0.2-14.8-2.7-22-5.3
		c0.4,0.6,0.9,1.1,1.5,1.5c9,6,18.6,9.8,29.6,10.5c9.8,0.6,19.1-0.4,28.4-3.5c3.3-1.1,6.6-2.3,9.9-3.4c8.8-6.5,13.6-15.3,13.1-26.2
		c-0.7-15.7-11.1-23.5-25.3-27.7c4.1-4,7.8-8,10.8-12.5c2.9-4.4,5.4-9.1,5.5-14.5c0.3-11.7-5.3-20-16.1-24.8
		c-15.8-6.9-36.7-2.9-49.9,9.2c-18,16.6-23.3,55.1,4.9,76.6c3.4,2.6,6.9,5,11.4,6.7c-1.8-2.7-3.5-4.8-4.9-7.1
		c-8.3-13.3-11.1-27.2-5.9-42.6c4.6-13.5,18.9-20,28.8-19c4.6,0.5,9.7,3.2,9.1,8.9c-0.2,2.4-1.2,4.4-2.5,6.3
		c-3.8,5.7-9.1,9.9-14.7,13.8c-2,1.4-3.9,2.7-6.2,4.2c2.7,0.8,4.1,1.3,6.5,2.2c0.8-0.6,1.7-0.9,2.6-1.6c1.8-1.3,3.5-2.8,5.1-4.3
		c2.3-2.1,3.5-3.1,4.8-4.5"/>
	<g>
		<path class="st3" d="M238.1,388.7c0,0-2.1,4.7-3.2,6.6c-1.2,1.9-2.7,4-4.3,6c-1.6,2.1-3.4,4.1-5.4,6c-2,1.9-4,3.7-6.1,5.2
			s-4.3,2.8-6.4,3.7c-2.2,0.9-4.3,1.4-6.5,1.4c-2.2,0.1-4.2-0.4-6.2-1.6c-2.2-1.2-3.7-2.7-4.4-4.6c-0.8-1.9-1.1-3.9-1-6
			c0.1-2.1,0.5-4.3,1.3-6.5c0.8-2.2,1.7-4.2,2.7-6c1.8-3.3,3.7-6.1,5.7-8.3c2-2.2,4-4,6.1-5.3c2.1-1.3,4.2-2.2,6.3-2.7
			c2.1-0.5,4.2-0.6,6.2-0.3c2.1,0.3,3.6,1,4.5,2.1c0.9,1.2,1.2,2.6,1,4.2c-0.2,1.7-0.9,3.4-2.1,5.3c-1.2,1.9-2.7,3.7-4.6,5.4
			c-1.9,1.7-4.2,3.2-6.8,4.5c-2.6,1.3-5.4,2.1-8.5,2.5c-0.6,1.4-1.1,2.9-1.4,4.3c-0.4,1.4-0.6,2-0.4,3.3c0.2,1.2,0.5,1.5,1.2,2.1
			c0.5,0.4,1.1,0.9,2,1.2c1.2,0.4,2.4,0.4,4.1,0.2c1.6-0.2,2.4-0.4,3.3-0.7c1.1-0.4,3.9-1.6,5.6-3c1.7-1.4,3.5-2.9,5-4.5
			c1.5-1.6,2.7-2.9,4.1-4.5 M208.8,395.6c-0.4,0.6-0.7,1.1-0.9,1.6c3.6-0.8,6.6-2.1,9.1-3.9c2.5-1.8,4.4-3.7,5.7-5.6
			c1.3-1.9,2.1-3.6,2.3-5.1c0.2-1.5-0.2-2.3-1.2-2.5c-1.5-0.3-3.7,1-6.4,3.7C214.7,386.7,211.8,390.6,208.8,395.6z"/>
	</g>
</g>
<path class="st0" d="M-364.7,412.9c-6.1,2.1-12.2,4.3-18.3,6.3c-17,5.7-34.3,7.6-52.3,6.5c-20.3-1.3-38.1-8.3-54.7-19.4
	c-1.1-0.8-2.1-1.5-2.8-2.7c13.2,4.8,26.3,9.3,40.6,9.8c16.6,0.5,32-2.7,45.3-13.6c20.6-16.8,20.2-45.3-0.9-61.5
	c-10-7.7-21.4-11.9-34.3-14.9c4.2-2.9,7.9-5.3,11.5-7.8c10.3-7.2,20.1-14.9,27.1-25.5c2.3-3.5,4.1-7.3,4.6-11.7
	c1.1-10.6-8.4-15.6-16.8-16.5C-434,260-460.5,272-469,297c-9.6,28.3-4.5,54,10.8,78.6c2.6,4.2,5.6,8.2,9,13.1
	c-8.3-3.1-14.7-7.5-21-12.3c-52-39.7-42.2-110.9-9-141.4c24.4-22.4,62.9-29.8,92.2-17c20,8.7,30.3,24.2,29.7,45.8
	c-0.2,9.9-4.9,18.5-10.2,26.7c-5.5,8.4-12.3,15.6-19.9,23.1c26.2,7.8,45.3,22.1,46.7,51.2C-339.6,384.6-348.4,400.9-364.7,412.9z"/>
<g>
	<path class="st6" d="M556.2,226.4c-0.1-0.1-0.1-0.2-0.1-0.4l0.1-1.4c0.8-0.1,1.6,0,2.4,0.4s1.6,0.9,2.3,1.6
		c0.7,0.7,1.2,1.4,1.5,2.2s0.4,1.6,0.4,2.4s-0.3,1.6-0.6,2.4c-0.4,0.8-0.9,1.5-1.6,2.2c-0.7,0.7-1.5,1.2-2.3,1.5s-1.6,0.5-2.5,0.5
		c-0.8,0-1.6-0.2-2.5-0.6c-0.8-0.4-1.5-0.9-2.2-1.6c-0.7-0.7-1.1-1.4-1.4-2.1c-0.3-0.7-0.4-1.5-0.4-2.2l1.4-0.2c0.1,0,0.2,0,0.3,0
		s0.2,0.1,0.3,0.2c0.1,0.1,0.2,0.2,0.2,0.4c0,0.2,0.1,0.4,0.1,0.6s0.2,0.5,0.3,0.8c0.2,0.3,0.4,0.7,0.8,1c0.4,0.4,0.9,0.8,1.4,1
		c0.5,0.2,1,0.3,1.6,0.3c0.5,0,1.1-0.1,1.6-0.4c0.6-0.2,1.1-0.6,1.6-1.1c0.5-0.5,0.9-1,1.2-1.6c0.3-0.5,0.4-1.1,0.5-1.6
		c0-0.5,0-1-0.2-1.5c-0.2-0.5-0.5-0.9-0.9-1.3c-0.2-0.2-0.4-0.4-0.7-0.6c-0.2-0.2-0.4-0.3-0.6-0.4c-0.2-0.1-0.4-0.2-0.7-0.2
		c-0.2-0.1-0.5-0.1-0.7-0.1c-0.1,0-0.2,0-0.2,0C556.3,226.5,556.2,226.4,556.2,226.4z"/>
	<path class="st6" d="M539,220.2l1.6-1.1l3.3,4.7l2.9-2.1l-2.6-3.7l1.5-1.1l2.6,3.7l3-2.1l-3.3-4.7l1.6-1.1l4.7,6.7l-10.6,7.5
		L539,220.2z"/>
	<path class="st6" d="M534.6,212.6c0-0.1,0-0.1,0-0.2s0-0.1,0-0.2c0-0.1,0.1-0.2,0.1-0.3l4.8-10c-0.2,0.1-0.4,0.2-0.5,0.3
		c-0.2,0.1-0.3,0.2-0.5,0.3l-7.1,3.5l-0.9-1.9l11.7-5.7l0.5,1.1c0.1,0.2,0.1,0.3,0.1,0.5c0,0.1,0,0.3-0.1,0.5l-4.8,9.9
		c0.2-0.1,0.3-0.2,0.5-0.3c0.2-0.1,0.3-0.2,0.5-0.2l7.2-3.5l0.9,1.9l-11.7,5.7l-0.6-1.1C534.7,212.8,534.6,212.7,534.6,212.6z"/>
	<path class="st6" d="M525.1,188l1.9-0.6l1.1,3.8l10.6-3.2l0.7,2.3l-10.6,3.2l1.1,3.8l-1.9,0.6L525.1,188z"/>
	<path class="st6" d="M531.2,177.9l5-0.7l0.3,2.4l-12.9,1.8l-0.5-3.9c-0.1-0.9-0.1-1.6,0-2.3c0.1-0.7,0.3-1.2,0.6-1.6
		c0.3-0.4,0.6-0.8,1.1-1c0.4-0.2,0.9-0.4,1.5-0.5c0.4-0.1,0.9-0.1,1.3,0c0.4,0.1,0.8,0.2,1.1,0.4c0.3,0.2,0.7,0.5,1,0.8
		c0.3,0.3,0.5,0.7,0.7,1.1c0.1-0.3,0.3-0.6,0.6-0.9l4.3-3.9l0.3,2.2c0,0.2,0,0.4-0.1,0.5c-0.1,0.2-0.2,0.3-0.3,0.4l-3.8,3.3
		c-0.1,0.1-0.2,0.2-0.3,0.4c0,0.1-0.1,0.3,0,0.6L531.2,177.9z M529.5,178.1l-0.2-1.5c-0.1-0.5-0.2-0.8-0.3-1.2
		c-0.2-0.3-0.4-0.6-0.6-0.8c-0.2-0.2-0.5-0.3-0.8-0.4c-0.3-0.1-0.6-0.1-0.9,0c-0.7,0.1-1.1,0.4-1.4,0.9s-0.4,1.2-0.3,2l0.2,1.5
		L529.5,178.1z"/>
	<path class="st6" d="M528.8,152.7c1,0,1.8,0.2,2.6,0.6c0.8,0.3,1.5,0.8,2.1,1.4c0.6,0.6,1,1.3,1.3,2.1c0.3,0.8,0.4,1.7,0.4,2.7
		c0,1-0.2,1.9-0.6,2.7c-0.4,0.8-0.8,1.5-1.5,2s-1.3,1-2.2,1.3c-0.8,0.3-1.7,0.4-2.7,0.4c-1,0-1.8-0.2-2.6-0.6s-1.5-0.8-2.1-1.4
		c-0.6-0.6-1-1.3-1.3-2.1c-0.3-0.8-0.4-1.7-0.4-2.7c0-1,0.2-1.9,0.6-2.7c0.4-0.8,0.8-1.5,1.5-2c0.6-0.6,1.3-1,2.1-1.3
		S527.9,152.7,528.8,152.7z M528.8,155.2c-0.7,0-1.4,0.1-1.9,0.2c-0.6,0.2-1.1,0.4-1.5,0.8c-0.4,0.3-0.7,0.8-0.9,1.3
		c-0.2,0.5-0.3,1.1-0.4,1.7s0.1,1.2,0.3,1.7s0.5,1,0.9,1.3c0.4,0.4,0.9,0.7,1.4,0.9c0.6,0.2,1.2,0.3,1.9,0.3s1.4-0.1,1.9-0.2
		c0.6-0.2,1.1-0.4,1.5-0.8c0.4-0.3,0.7-0.8,0.9-1.3s0.3-1.1,0.4-1.7s-0.1-1.2-0.3-1.7s-0.5-1-0.9-1.3c-0.4-0.4-0.9-0.7-1.4-0.9
		C530.1,155.3,529.5,155.2,528.8,155.2z"/>
	<path class="st6" d="M534.3,128.3c0.9,0.3,1.7,0.7,2.4,1.2c0.7,0.5,1.2,1.2,1.6,1.9c0.4,0.7,0.6,1.5,0.7,2.4s0,1.8-0.3,2.7
		l-1.4,4.8l-12.5-3.7l1.4-4.8c0.3-0.9,0.7-1.8,1.2-2.4s1.2-1.2,1.9-1.6s1.5-0.6,2.4-0.7S533.4,128.1,534.3,128.3z M533.6,130.7
		c-0.7-0.2-1.3-0.3-1.9-0.3c-0.6,0-1.1,0.2-1.6,0.4c-0.5,0.2-0.9,0.6-1.2,1c-0.3,0.4-0.6,0.9-0.8,1.6l-0.7,2.4l8.8,2.6l0.7-2.4
		c0.2-0.6,0.2-1.2,0.2-1.7c-0.1-0.5-0.2-1-0.5-1.5s-0.7-0.8-1.2-1.2S534.3,130.9,533.6,130.7z"/>
	<path class="st6" d="M534.4,112.5l1.7,0.8l-2.5,5.2l3.3,1.6l2-4.1l1.7,0.8l-2,4.1l3.3,1.6l2.5-5.2l1.7,0.8l-3.5,7.4l-11.7-5.6
		L534.4,112.5z"/>
	<path class="st6" d="M547.3,93.4l1.5,1.2l-3.6,4.5l2.8,2.2l2.8-3.6l1.5,1.1l-2.8,3.6l2.9,2.3l3.6-4.5l1.5,1.2l-5.1,6.5l-10.2-8
		L547.3,93.4z"/>
	<path class="st6" d="M565.1,84.9c0.6,0.7,1.1,1.4,1.4,2.3c0.3,0.8,0.4,1.6,0.4,2.4c0,0.8-0.2,1.6-0.6,2.4c-0.4,0.8-0.9,1.5-1.6,2.2
		l-3.6,3.4l-8.8-9.5l3.6-3.4c0.7-0.7,1.5-1.2,2.3-1.5c0.8-0.3,1.6-0.5,2.4-0.4c0.8,0,1.6,0.2,2.4,0.6
		C563.7,83.7,564.4,84.2,565.1,84.9z M563.3,86.6c-0.5-0.5-1-0.9-1.5-1.2s-1.1-0.5-1.6-0.5c-0.5,0-1,0-1.6,0.2s-1,0.5-1.5,0.9
		l-1.9,1.7l6.2,6.7l1.9-1.7c0.5-0.4,0.8-0.9,1-1.4c0.2-0.5,0.3-1,0.3-1.5s-0.1-1.1-0.4-1.6C564.1,87.7,563.8,87.1,563.3,86.6z"/>
	<path class="st6" d="M576.8,82.2c0.4-0.3,0.7-0.5,0.9-0.9c0.2-0.3,0.4-0.7,0.4-1.1c0.1-0.4,0-0.8-0.1-1.2c-0.1-0.4-0.3-0.8-0.6-1.2
		l-4.2-6.5l2-1.3l4.2,6.5c0.4,0.6,0.7,1.3,0.9,2c0.1,0.7,0.2,1.4,0,2c-0.1,0.7-0.4,1.3-0.8,1.9c-0.4,0.6-1,1.1-1.7,1.6
		c-0.7,0.5-1.4,0.7-2.1,0.9s-1.4,0.1-2,0c-0.6-0.1-1.3-0.4-1.8-0.8s-1.1-1-1.5-1.6l-4.2-6.5l2-1.3l4.2,6.5c0.3,0.4,0.6,0.8,0.9,1
		c0.3,0.3,0.7,0.4,1,0.6s0.7,0.1,1.1,0S576.4,82.5,576.8,82.2z"/>
	<path class="st6" d="M594.3,72c0.1-0.1,0.2-0.1,0.4,0l1.3,0.6c-0.2,0.8-0.6,1.5-1.2,2.2s-1.4,1.1-2.3,1.6c-0.9,0.4-1.8,0.6-2.6,0.6
		c-0.8,0-1.6-0.2-2.4-0.5c-0.7-0.3-1.4-0.8-2-1.4c-0.6-0.6-1.1-1.4-1.5-2.3c-0.4-0.9-0.6-1.8-0.6-2.7c0-0.9,0.1-1.7,0.4-2.5
		c0.3-0.8,0.8-1.5,1.4-2.1c0.6-0.6,1.4-1.1,2.3-1.5c0.9-0.4,1.7-0.6,2.5-0.6c0.8,0,1.5,0.1,2.2,0.4l-0.3,1.4c0,0.1,0,0.2-0.1,0.2
		c0,0.1-0.1,0.1-0.3,0.2c-0.1,0.1-0.3,0.1-0.5,0s-0.4-0.1-0.6-0.1c-0.3,0-0.6,0-0.9,0c-0.4,0-0.8,0.2-1.3,0.4c-0.6,0.2-1,0.6-1.4,1
		c-0.4,0.4-0.7,0.9-0.9,1.4c-0.2,0.5-0.3,1.1-0.2,1.7c0,0.6,0.2,1.2,0.5,1.9c0.3,0.7,0.6,1.2,1.1,1.7c0.4,0.4,0.9,0.8,1.3,1
		c0.5,0.2,1,0.3,1.5,0.3s1-0.1,1.5-0.3c0.3-0.1,0.6-0.3,0.8-0.4c0.2-0.1,0.4-0.3,0.6-0.4c0.2-0.2,0.3-0.3,0.5-0.5
		c0.1-0.2,0.3-0.4,0.4-0.7c0-0.1,0.1-0.1,0.1-0.2C594.2,72.1,594.3,72.1,594.3,72z"/>
	<path class="st6" d="M612.5,70.1l-1.8,0.4c-0.2,0-0.4,0-0.5,0c-0.2-0.1-0.3-0.2-0.4-0.3l-1.6-2.4l-5.2,1.3l-0.3,2.8
		c0,0.1-0.1,0.3-0.2,0.4c-0.1,0.1-0.3,0.2-0.5,0.3l-1.8,0.4l1.9-13.9l2.4-0.6L612.5,70.1z M603.2,67.3l4-1l-2.6-3.8
		c-0.1-0.2-0.2-0.4-0.4-0.6c-0.1-0.2-0.3-0.5-0.5-0.8c0,0.3,0,0.6,0,0.9c0,0.3,0,0.5-0.1,0.7L603.2,67.3z"/>
	<path class="st6" d="M621,71.3c0,0,0.1,0,0.1,0c0,0,0.1,0,0.2,0c0.1,0,0.1,0,0.2,0c0.1,0,0.2,0,0.2,0c0.2,0,0.3-0.1,0.4-0.1
		s0.1-0.2,0.1-0.3c0-0.2-0.1-0.3-0.4-0.3c-0.2-0.1-0.6-0.1-1-0.1l0.2-1.1c-0.9,0-1.6-0.2-2.3-0.5c-0.7-0.3-1.3-0.7-1.8-1.3
		c-0.5-0.5-0.9-1.2-1.2-1.9s-0.5-1.6-0.6-2.5c-0.1-1,0-1.9,0.3-2.7c0.3-0.8,0.7-1.6,1.2-2.2c0.5-0.6,1.2-1.1,2-1.5
		c0.8-0.4,1.7-0.6,2.7-0.7c1-0.1,1.8,0,2.6,0.3c0.7,0.3,1.4,0.6,1.9,1.1l-0.7,1.2c0,0.1-0.1,0.1-0.2,0.2c-0.1,0.1-0.2,0.1-0.3,0.1
		c-0.1,0-0.3,0-0.4-0.1c-0.2-0.1-0.3-0.2-0.6-0.3c-0.2-0.1-0.5-0.2-0.9-0.3c-0.3-0.1-0.8-0.1-1.3-0.1c-0.6,0-1.2,0.2-1.7,0.4
		c-0.5,0.3-0.9,0.6-1.2,1c-0.3,0.4-0.6,0.9-0.7,1.5c-0.2,0.6-0.2,1.2-0.2,1.9c0.1,0.7,0.2,1.4,0.5,1.9c0.3,0.6,0.6,1,1,1.4
		c0.4,0.4,0.8,0.6,1.3,0.8c0.5,0.2,1,0.2,1.6,0.2c0.3,0,0.6-0.1,0.9-0.1c0.3-0.1,0.5-0.1,0.7-0.2c0.2-0.1,0.4-0.2,0.6-0.4
		c0.2-0.1,0.4-0.3,0.6-0.5c0.1-0.1,0.1-0.1,0.2-0.1c0.1,0,0.1-0.1,0.2-0.1c0.1,0,0.2,0,0.4,0.1l1,1c-0.4,0.6-1,1.2-1.6,1.6
		c-0.7,0.4-1.4,0.6-2.4,0.7l-0.1,0.4c0.5,0.1,0.9,0.2,1.2,0.4c0.2,0.2,0.4,0.5,0.4,0.8c0,0.2,0,0.4-0.1,0.6
		c-0.1,0.2-0.2,0.3-0.4,0.4s-0.4,0.2-0.7,0.3c-0.3,0.1-0.6,0.1-0.9,0.2c-0.2,0-0.5,0-0.7,0s-0.4-0.1-0.6-0.1l0.2-0.7
		C620.8,71.4,620.9,71.3,621,71.3z"/>
	<path class="st6" d="M643,69.9l-1.9-0.2c-0.2,0-0.4-0.1-0.5-0.2c-0.1-0.1-0.2-0.3-0.3-0.4l-0.7-2.7l-5.4-0.5l-1.2,2.6
		c-0.1,0.1-0.2,0.3-0.3,0.4c-0.2,0.1-0.3,0.1-0.5,0.1l-1.9-0.2l6.2-12.5l2.5,0.2L643,69.9z M635,64.2l4.1,0.4l-1.2-4.4
		c-0.1-0.2-0.1-0.4-0.2-0.7c-0.1-0.3-0.1-0.6-0.2-0.9c-0.1,0.3-0.2,0.6-0.3,0.8c-0.1,0.3-0.2,0.5-0.3,0.7L635,64.2z M639.1,54.2
		c0.2,0,0.3,0,0.4-0.1c0.1-0.1,0.2-0.2,0.2-0.4l1.2,0.1c0,0.3-0.1,0.6-0.2,0.8c-0.1,0.2-0.2,0.4-0.4,0.6c-0.2,0.2-0.3,0.3-0.6,0.4
		c-0.2,0.1-0.5,0.1-0.7,0.1c-0.2,0-0.4-0.1-0.6-0.2c-0.2-0.1-0.4-0.2-0.6-0.3s-0.3-0.2-0.5-0.3c-0.2-0.1-0.3-0.1-0.4-0.1
		c-0.2,0-0.3,0-0.4,0.1c-0.1,0.1-0.2,0.2-0.2,0.4l-1.2-0.1c0-0.3,0.1-0.6,0.2-0.8c0.1-0.2,0.2-0.4,0.4-0.6s0.4-0.3,0.6-0.4
		s0.5-0.1,0.7-0.1c0.2,0,0.4,0.1,0.6,0.2s0.4,0.2,0.6,0.3s0.3,0.2,0.5,0.3C638.8,54.1,639,54.2,639.1,54.2z"/>
	<path class="st6" d="M660.6,67.5c-0.2,0.9-0.6,1.7-1.1,2.4c-0.5,0.7-1.1,1.3-1.8,1.7c-0.7,0.4-1.5,0.7-2.4,0.8
		c-0.9,0.1-1.8,0-2.7-0.2s-1.8-0.6-2.5-1.2s-1.3-1.2-1.7-1.9c-0.4-0.7-0.7-1.5-0.8-2.4c-0.1-0.9,0-1.8,0.2-2.7s0.6-1.7,1.1-2.4
		c0.5-0.7,1.1-1.3,1.8-1.7c0.7-0.4,1.5-0.7,2.4-0.8s1.8,0,2.7,0.2s1.8,0.6,2.5,1.2c0.7,0.5,1.2,1.2,1.7,1.9c0.4,0.7,0.7,1.5,0.8,2.4
		C661,65.7,660.9,66.6,660.6,67.5z M658.2,66.9c0.2-0.7,0.3-1.3,0.2-1.9c0-0.6-0.2-1.1-0.4-1.6s-0.6-0.9-1-1.2
		c-0.4-0.3-1-0.6-1.6-0.7c-0.6-0.2-1.2-0.2-1.7-0.1c-0.5,0.1-1,0.3-1.5,0.5c-0.4,0.3-0.8,0.7-1.2,1.2c-0.3,0.5-0.6,1.1-0.8,1.8
		c-0.2,0.7-0.3,1.3-0.2,1.9c0,0.6,0.2,1.1,0.4,1.6c0.2,0.5,0.6,0.9,1,1.2c0.4,0.3,1,0.6,1.6,0.7s1.2,0.2,1.7,0.1s1-0.3,1.5-0.5
		c0.4-0.3,0.8-0.7,1.2-1.2C657.8,68.2,658.1,67.6,658.2,66.9z"/>
	<path class="st6" d="M669.8,78.5l6.3-11.4l3.9,2.2c0.7,0.4,1.3,0.8,1.8,1.3s0.8,0.9,1,1.3c0.2,0.5,0.3,0.9,0.2,1.4
		c0,0.5-0.2,0.9-0.5,1.4c-0.1,0.3-0.3,0.5-0.5,0.7c-0.2,0.2-0.5,0.4-0.7,0.5s-0.6,0.2-1,0.2s-0.7,0-1.2-0.1c1.4,1.2,1.7,2.5,0.9,3.8
		c-0.3,0.5-0.6,0.9-1,1.2c-0.4,0.3-0.9,0.5-1.4,0.6s-1.1,0.1-1.7,0c-0.6-0.1-1.2-0.4-1.9-0.7L669.8,78.5z M674.7,74.7l-1.9,3.3
		l2.1,1.2c0.4,0.2,0.7,0.4,1.1,0.4s0.6,0,0.8,0c0.2-0.1,0.5-0.2,0.7-0.4s0.3-0.4,0.5-0.6c0.1-0.2,0.2-0.5,0.3-0.7
		c0-0.2,0-0.5-0.1-0.7c-0.1-0.2-0.2-0.5-0.5-0.7s-0.5-0.4-0.9-0.6L674.7,74.7z M675.5,73.2l1.7,0.9c0.7,0.4,1.3,0.6,1.9,0.5
		c0.5-0.1,0.9-0.4,1.3-0.9c0.3-0.6,0.4-1.1,0.2-1.5c-0.2-0.4-0.7-0.9-1.4-1.3l-1.8-1L675.5,73.2z"/>
	<path class="st6" d="M691.5,93.1l-1.5-1.2c-0.2-0.1-0.3-0.3-0.3-0.4c0-0.2,0-0.3,0-0.5l0.9-2.7l-4.2-3.4l-2.4,1.5
		c-0.1,0.1-0.3,0.1-0.5,0.1c-0.2,0-0.4-0.1-0.5-0.2l-1.5-1.2l12.1-7l1.9,1.5L691.5,93.1z M688,84l3.2,2.6l1.5-4.4
		c0.1-0.2,0.1-0.4,0.2-0.7c0.1-0.3,0.2-0.5,0.3-0.8c-0.3,0.2-0.5,0.4-0.7,0.5c-0.2,0.2-0.4,0.3-0.6,0.4L688,84z M699.3,78.7
		l-3.3-0.1c-0.1,0-0.2,0-0.2,0c-0.1,0-0.1,0-0.2,0c-0.1,0-0.1,0-0.2-0.1c-0.1,0-0.1-0.1-0.2-0.1l-1.4-1.1l2.5-0.3c0.1,0,0.2,0,0.3,0
		s0.2,0,0.2,0c0.1,0,0.1,0.1,0.2,0.1c0.1,0,0.2,0.1,0.2,0.2L699.3,78.7z"/>
	<path class="st6" d="M707.2,94.2c-0.1,0-0.3,0-0.4,0c-0.1,0-0.2-0.1-0.3-0.2c-0.1-0.1-0.1-0.2-0.2-0.4c0-0.2-0.1-0.4-0.1-0.6
		c-0.1-0.2-0.1-0.5-0.3-0.7c-0.1-0.3-0.3-0.5-0.6-0.8c-0.2-0.2-0.5-0.4-0.7-0.6c-0.2-0.1-0.5-0.2-0.7-0.2c-0.2,0-0.4,0-0.6,0.1
		c-0.2,0.1-0.4,0.2-0.6,0.4c-0.2,0.2-0.4,0.4-0.4,0.7c0,0.3,0,0.5,0.1,0.9s0.2,0.6,0.4,1c0.2,0.3,0.3,0.7,0.5,1.1
		c0.2,0.4,0.3,0.7,0.4,1.1c0.1,0.4,0.2,0.8,0.2,1.1c0,0.4-0.1,0.8-0.2,1.1c-0.2,0.4-0.4,0.8-0.8,1.1c-0.4,0.4-0.9,0.7-1.4,0.9
		c-0.5,0.2-1,0.3-1.6,0.3c-0.5,0-1.1-0.2-1.6-0.4s-1.1-0.7-1.5-1.2c-0.3-0.3-0.5-0.6-0.7-1s-0.4-0.7-0.5-1.1
		c-0.1-0.4-0.2-0.7-0.3-1.1c-0.1-0.4-0.1-0.7-0.1-1.1l1.3-0.3c0.1,0,0.2,0,0.3,0c0.1,0,0.2,0.1,0.3,0.2c0.1,0.1,0.2,0.3,0.2,0.5
		s0.1,0.5,0.1,0.7c0.1,0.3,0.1,0.6,0.3,0.9c0.1,0.3,0.3,0.6,0.7,1c0.5,0.5,1,0.8,1.4,0.8c0.5,0.1,1-0.1,1.4-0.5
		c0.3-0.2,0.4-0.5,0.4-0.8c0-0.3,0-0.6-0.1-0.9s-0.2-0.6-0.4-1c-0.2-0.3-0.3-0.7-0.5-1s-0.3-0.7-0.4-1.1c-0.1-0.4-0.2-0.8-0.2-1.2
		c0-0.4,0.1-0.8,0.3-1.2c0.2-0.4,0.5-0.8,0.9-1.2c0.3-0.3,0.8-0.6,1.2-0.7c0.5-0.2,0.9-0.2,1.4-0.2s1,0.2,1.5,0.4
		c0.5,0.2,1,0.6,1.5,1.1c0.5,0.6,0.9,1.2,1.2,1.8c0.3,0.6,0.4,1.3,0.4,1.9L707.2,94.2z"/>
	<path class="st6" d="M704.7,108.3l-1.4-2l10.5-7.7l1.4,2L704.7,108.3z"/>
	<path class="st6" d="M715.2,119.7c0.1,0.1,0.1,0.2,0,0.4l-0.4,1.3c-0.8-0.1-1.6-0.5-2.3-1c-0.7-0.5-1.3-1.2-1.8-2.2
		c-0.5-0.8-0.7-1.7-0.8-2.5c-0.1-0.8,0-1.6,0.3-2.4c0.3-0.8,0.7-1.5,1.2-2.1s1.3-1.2,2.1-1.7c0.9-0.5,1.7-0.8,2.6-0.9s1.7,0,2.5,0.2
		c0.8,0.2,1.5,0.6,2.2,1.2c0.7,0.6,1.3,1.3,1.7,2.1c0.5,0.8,0.7,1.7,0.8,2.4c0.1,0.8,0,1.5-0.2,2.2l-1.4-0.2c-0.1,0-0.2,0-0.3-0.1
		c-0.1,0-0.2-0.1-0.2-0.2c-0.1-0.1-0.1-0.3-0.1-0.4s0-0.4,0-0.6c0-0.3,0-0.6-0.1-0.9s-0.2-0.8-0.5-1.2c-0.3-0.5-0.7-1-1.1-1.3
		c-0.4-0.3-0.9-0.6-1.4-0.7c-0.5-0.1-1.1-0.2-1.7-0.1c-0.6,0.1-1.2,0.3-1.8,0.6c-0.6,0.4-1.2,0.8-1.6,1.2c-0.4,0.5-0.7,0.9-0.9,1.4
		c-0.2,0.5-0.2,1-0.2,1.5s0.2,1,0.5,1.5c0.2,0.3,0.3,0.5,0.5,0.8c0.2,0.2,0.3,0.4,0.5,0.6c0.2,0.2,0.4,0.3,0.6,0.4
		c0.2,0.1,0.4,0.2,0.7,0.3c0.1,0,0.1,0.1,0.2,0.1C715.1,119.6,715.1,119.6,715.2,119.7z"/>
	<path class="st6" d="M718.8,137.6l-0.6-1.8c-0.1-0.2-0.1-0.4,0-0.5c0.1-0.2,0.1-0.3,0.3-0.4l2.2-1.8l-1.8-5.1l-2.8,0
		c-0.1,0-0.3,0-0.5-0.1c-0.2-0.1-0.3-0.2-0.3-0.4l-0.6-1.8l14,0.5l0.8,2.3L718.8,137.6z M720.7,128l1.4,3.9l3.6-2.9
		c0.2-0.1,0.3-0.3,0.6-0.4c0.2-0.2,0.5-0.3,0.7-0.5c-0.3,0-0.6,0-0.9,0c-0.3,0-0.5,0-0.7,0L720.7,128z"/>
	<path class="st6" d="M728.6,159.6c-1,0.1-1.8,0-2.7-0.2c-0.8-0.2-1.5-0.6-2.2-1.2c-0.6-0.5-1.1-1.2-1.5-2c-0.4-0.8-0.6-1.7-0.7-2.6
		l-0.4-4.9l13-1.2l0.4,4.9c0.1,1,0,1.9-0.2,2.7c-0.2,0.8-0.6,1.6-1.2,2.2c-0.5,0.6-1.2,1.1-1.9,1.5
		C730.4,159.2,729.5,159.5,728.6,159.6z M728.4,157.1c0.7-0.1,1.3-0.2,1.9-0.5c0.5-0.2,1-0.6,1.4-0.9c0.4-0.4,0.6-0.8,0.8-1.4
		c0.2-0.5,0.2-1.1,0.2-1.7l-0.2-2.5l-9.1,0.8l0.2,2.5c0.1,0.6,0.2,1.2,0.5,1.7c0.3,0.5,0.6,0.9,1,1.2s0.9,0.5,1.5,0.7
		C727,157.1,727.6,157.2,728.4,157.1z"/>
	<path class="st6" d="M721.1,176.1l0.1-1.9c0-0.2,0.1-0.4,0.2-0.5s0.3-0.2,0.4-0.3l2.7-0.8l0.4-5.4l-2.6-1.2
		c-0.1-0.1-0.3-0.2-0.4-0.3s-0.1-0.3-0.1-0.5l0.1-1.9l12.6,6.1l-0.2,2.5L721.1,176.1z M726.7,168l-0.3,4.1l4.4-1.2
		c0.2-0.1,0.4-0.1,0.7-0.2c0.3-0.1,0.6-0.1,0.9-0.2c-0.3-0.1-0.6-0.2-0.8-0.3c-0.3-0.1-0.5-0.2-0.7-0.3L726.7,168z"/>
	<path class="st6" d="M719,192.7c-0.1,0.4-0.2,0.9-0.2,1.3c0,0.4,0.1,0.8,0.3,1.1c0.2,0.3,0.4,0.6,0.8,0.9c0.3,0.3,0.7,0.5,1.2,0.6
		l7.4,2.5l-0.8,2.3l-7.4-2.5c-0.7-0.2-1.4-0.6-1.9-1c-0.5-0.4-1-1-1.3-1.6s-0.5-1.3-0.5-2c0-0.7,0.1-1.5,0.3-2.3
		c0.3-0.8,0.6-1.5,1.1-2c0.5-0.5,1-1,1.6-1.3c0.6-0.3,1.3-0.4,2-0.5s1.4,0.1,2.2,0.3l7.4,2.5l-0.8,2.3l-7.4-2.5
		c-0.5-0.2-0.9-0.2-1.3-0.2c-0.4,0-0.8,0.1-1.2,0.2c-0.4,0.1-0.7,0.4-0.9,0.7C719.3,191.8,719.1,192.2,719,192.7z"/>
	<path class="st6" d="M720.8,215.5l-1.7-0.9l2.7-5.1l-3.2-1.7l-2.1,4l-1.7-0.9l2.1-4l-3.3-1.7l-2.7,5.1l-1.7-0.9l3.8-7.3l11.5,6
		L720.8,215.5z"/>
	<path class="st6" d="M712.3,228.2l-1.6-1.1l3.4-4.7l-3.1-2.3l-2.8,3.9l-1.6-1.1l2.8-3.9l-4.3-3.1l1.4-2l10.6,7.6L712.3,228.2z"/>
	<path class="st6" d="M701.3,236.9c0-0.1-0.1-0.3,0-0.4c0-0.1,0.1-0.2,0.2-0.3c0.1-0.1,0.2-0.2,0.4-0.2s0.4-0.1,0.6-0.2
		c0.2-0.1,0.5-0.2,0.7-0.3s0.5-0.3,0.8-0.6c0.2-0.2,0.4-0.5,0.5-0.7c0.1-0.2,0.2-0.5,0.2-0.7c0-0.2,0-0.4-0.1-0.6
		c-0.1-0.2-0.2-0.4-0.4-0.5c-0.2-0.2-0.5-0.3-0.7-0.3s-0.5,0-0.8,0.1c-0.3,0.1-0.6,0.2-0.9,0.4c-0.3,0.2-0.7,0.4-1,0.5
		s-0.7,0.3-1.1,0.5c-0.4,0.1-0.8,0.2-1.1,0.2s-0.8,0-1.2-0.2c-0.4-0.1-0.8-0.4-1.2-0.8c-0.4-0.4-0.8-0.9-1-1.4s-0.4-1-0.4-1.6
		s0.1-1.1,0.3-1.6c0.2-0.6,0.6-1.1,1.1-1.6c0.3-0.3,0.6-0.6,0.9-0.8s0.7-0.4,1-0.6c0.4-0.2,0.7-0.3,1.1-0.4c0.4-0.1,0.7-0.1,1.1-0.1
		l0.4,1.3c0,0.1,0,0.2,0,0.3c0,0.1-0.1,0.2-0.2,0.3c-0.1,0.1-0.3,0.2-0.5,0.2c-0.2,0-0.4,0.1-0.7,0.2s-0.6,0.2-0.9,0.3
		c-0.3,0.1-0.6,0.4-0.9,0.7c-0.5,0.5-0.7,1-0.8,1.5s0.2,1,0.6,1.4c0.2,0.2,0.5,0.4,0.8,0.4c0.3,0,0.6,0,0.9-0.1
		c0.3-0.1,0.6-0.2,0.9-0.4c0.3-0.2,0.7-0.4,1-0.6c0.3-0.2,0.7-0.4,1.1-0.5c0.4-0.1,0.8-0.2,1.1-0.2c0.4,0,0.8,0.1,1.2,0.2
		c0.4,0.2,0.8,0.4,1.3,0.9c0.3,0.3,0.6,0.7,0.8,1.2s0.3,0.9,0.3,1.4s-0.1,1-0.3,1.5c-0.2,0.5-0.6,1-1,1.5c-0.5,0.6-1.1,1-1.7,1.3
		c-0.6,0.3-1.2,0.5-1.9,0.5L701.3,236.9z"/>
</g>
<text transform="matrix(1 0 0 1 49.8272 497.2144)"><tspan x="0" y="0" class="st6 st7 st12 st13">CENTRO DE EDUCAÇÃO BÁSICA</tspan><tspan x="118.2" y="17" class="st6 st7 st12 st13">DA UEFS</tspan></text>
<g>
	<linearGradient id="SVGID_7_" gradientUnits="userSpaceOnUse" x1="430.1625" y1="333.2716" x2="595.6706" y2="444.4849">
		<stop  offset="0" style="stop-color:#2B3990"/>
		<stop  offset="1" style="stop-color:#1B75BC"/>
	</linearGradient>
	<path class="st14" d="M580.7,466.1c-8.8,7.8-18.9,13.2-30.2,16.2c-23.4,6.1-44.3,0.5-62.6-14.8c-19.5-16.3-29.9-37.5-30.3-63
		c-0.6-34.2,19.7-63.3,51.7-75.2c16.7-6.2,33.8-7.4,50.9-1.7c13.2,4.4,24,12.3,32.3,23.6c8.2,11.1,12.8,23.5,15.5,36.8
		c-2.2-4.3-4.2-8.7-6.6-13c-7.2-12.6-16.6-23.1-29.5-30.2c-6.1-3.4-12.7-5.2-19.6-6c-27.1-3.2-52.5,13.6-62.7,39.3
		c-6.1,15.4-6.6,31-2.5,47c2.1,8.2,5.9,15.5,10.4,22.3c3.6,5.3,8,10.3,13.7,13.6c0.4,0.6,0.9,1.1,1.5,1.5c9,6,18.6,9.8,29.6,10.5
		c9.8,0.6,19.1-0.4,28.4-3.5C574.1,468.4,577.4,467.2,580.7,466.1z"/>
	<linearGradient id="SVGID_8_" gradientUnits="userSpaceOnUse" x1="489.2061" y1="374.1343" x2="607.6144" y2="458.7688">
		<stop  offset="0" style="stop-color:#8DC63F"/>
		<stop  offset="1" style="stop-color:#009444"/>
	</linearGradient>
	<path class="st15" d="M568.1,397.7l-0.5,2.6c-0.7,2.8-1.9,4.8-3.2,7.2c-1.3,2-2.2,4.3-3.9,6.4c-1.6,2.1-3.2,4.3-5.2,6.3
		c-1.1,1.1-2.2,2.1-3.4,3.1c2,1,3,1.2,5.4,2.3c11.2,5.1,11.6,24.2,0.5,33.3c-7.2,5.9-15.5,7.6-24.6,7.4c-7.7-0.2-14.8-2.7-22-5.3
		c0.4,0.6,0.9,1.1,1.5,1.5c9,6,18.6,9.8,29.6,10.5c9.8,0.6,19.1-0.4,28.4-3.5c3.3-1.1,6.6-2.3,9.9-3.4c8.8-6.5,13.6-15.3,13.1-26.2
		c-0.7-15.7-11.1-23.5-25.3-27.7c4.1-4,7.8-8,10.8-12.5c2.9-4.4,5.4-9.1,5.5-14.5c0.3-11.7-5.3-20-16.1-24.8
		c-15.8-6.9-36.7-2.9-49.9,9.2c-18,16.6-23.3,55.1,4.9,76.6c3.4,2.6,6.9,5,11.4,6.7c-1.8-2.7-3.5-4.8-4.9-7.1
		c-8.3-13.3-11.1-27.2-5.9-42.6c4.6-13.5,18.9-20,28.8-19c4.6,0.5,9.7,3.2,9.1,8.9c-0.2,2.4-1.2,4.4-2.5,6.3
		c-3.8,5.7-9.1,9.9-14.7,13.8c-2,1.4-3.9,2.7-6.2,4.2c2.7,0.8,4.1,1.3,6.5,2.2c0.8-0.6,1.7-0.9,2.6-1.6c1.8-1.3,3.5-2.8,5.1-4.3
		c2.3-2.1,3.5-3.1,4.8-4.5"/>
	<g>
		<path class="st3" d="M567.2,399.5c0,0-2.1,4.7-3.2,6.6c-1.2,1.9-2.7,4-4.3,6c-1.6,2.1-3.4,4.1-5.4,6c-2,1.9-4,3.7-6.1,5.2
			c-2.1,1.6-4.3,2.8-6.4,3.7c-2.2,0.9-4.3,1.4-6.5,1.4c-2.2,0.1-4.2-0.4-6.2-1.6c-2.2-1.2-3.7-2.7-4.4-4.6c-0.8-1.9-1.1-3.9-1-6
			c0.1-2.1,0.5-4.3,1.3-6.5c0.8-2.2,1.7-4.2,2.7-6c1.8-3.3,3.7-6.1,5.7-8.3c2-2.2,4-4,6.1-5.3c2.1-1.3,4.2-2.2,6.3-2.7
			c2.1-0.5,4.2-0.6,6.2-0.3c2.1,0.3,3.6,1,4.5,2.1c0.9,1.2,1.2,2.6,1,4.2c-0.2,1.7-0.9,3.4-2.1,5.3c-1.2,1.9-2.7,3.7-4.6,5.4
			c-1.9,1.7-4.2,3.2-6.8,4.5c-2.6,1.3-5.4,2.1-8.5,2.5c-0.6,1.4-1.1,2.9-1.4,4.3c-0.4,1.4-0.6,2-0.4,3.3c0.2,1.2,0.5,1.5,1.2,2.1
			c0.5,0.4,1.1,0.9,2,1.2c1.2,0.4,2.4,0.4,4.1,0.2c1.6-0.2,2.4-0.4,3.3-0.7c1.1-0.4,3.9-1.6,5.6-3c1.7-1.4,3.5-2.9,5-4.5
			c1.5-1.6,2.7-2.9,4.1-4.5 M537.9,406.4c-0.4,0.6-0.7,1.1-0.9,1.6c3.6-0.8,6.6-2.1,9.1-3.9c2.5-1.8,4.4-3.7,5.7-5.6
			c1.3-1.9,2.1-3.6,2.3-5.1c0.2-1.5-0.2-2.3-1.2-2.5c-1.5-0.3-3.7,1-6.4,3.7C543.8,397.5,540.9,401.4,537.9,406.4z"/>
	</g>
</g>
<text transform="matrix(1 0 0 1 608.7668 404.2684)"><tspan x="0" y="0" class="st6 st7 st16">CENTRO DE</tspan><tspan x="0" y="20.6" class="st6 st7 st16">EDUCAÇÃO BÁSICA</tspan><tspan x="0" y="41.2" class="st6 st7 st16">DA UEFS</tspan></text>
</svg>
