<?xml version="1.0" encoding="utf-8"?>
<!-- Generator: Adobe Illustrator 22.0.0, SVG Export Plug-In . SVG Version: 6.00 Build 0)  -->
<svg version="1.1" id="Camada_1" xmlns="http://www.w3.org/2000/svg" xmlns:xlink="http://www.w3.org/1999/xlink" x="0px" y="0px"
	 viewBox="0 0 841.9 595.3" style="enable-background:new 0 0 841.9 595.3;" xml:space="preserve">
<style type="text/css">
	.st0{display:none;fill:#00A157;}
	.st1{fill:url(#SVGID_1_);}
	.st2{fill:url(#SVGID_2_);}
	.st3{fill:#9652A0;}
	.st4{fill:#27358F;}
</style>
<path class="st0" d="M513.3,412.9c-6.1,2.1-12.2,4.3-18.3,6.3c-17,5.7-34.3,7.6-52.3,6.5c-20.3-1.3-38.1-8.3-54.7-19.4
	c-1.1-0.8-2.1-1.5-2.8-2.7c13.2,4.8,26.3,9.3,40.6,9.8c16.6,0.5,32-2.7,45.3-13.6c20.6-16.8,20.2-45.3-0.9-61.5
	c-10-7.7-21.4-11.9-34.3-14.9c4.2-2.9,7.9-5.3,11.5-7.8c10.3-7.2,20.1-14.9,27.1-25.5c2.3-3.5,4.1-7.3,4.6-11.7
	c1.1-10.6-8.4-15.6-16.8-16.5C444,260,417.5,272,409,297c-9.6,28.3-4.5,54,10.8,78.6c2.6,4.2,5.6,8.2,9,13.1
	c-8.3-3.1-14.7-7.5-21-12.3c-52-39.7-42.2-110.9-9-141.4c24.4-22.4,62.9-29.8,92.2-17c20,8.7,30.3,24.2,29.7,45.8
	c-0.2,9.9-4.9,18.5-10.2,26.7c-5.5,8.4-12.3,15.6-19.9,23.1c26.2,7.8,45.3,22.1,46.7,51.2C538.4,384.6,529.6,400.9,513.3,412.9z"/>
<g>
	<linearGradient id="SVGID_1_" gradientUnits="userSpaceOnUse" x1="152.6002" y1="134.4348" x2="586.9803" y2="426.3169">
		<stop  offset="0" style="stop-color:#2B3990"/>
		<stop  offset="1" style="stop-color:#1B75BC"/>
	</linearGradient>
	<path class="st1" d="M547.7,482.9c-23.1,20.4-49.5,34.8-79.3,42.5c-61.5,16-116.3,1.3-164.3-38.9c-51.2-42.9-78.5-98.3-79.6-165.3
		c-1.5-89.7,51.8-166,135.8-197.3c43.8-16.3,88.6-19.5,133.6-4.5c34.7,11.6,62.9,32.2,84.8,62c21.4,29.1,33.5,61.7,40.8,96.6
		c-5.7-11.3-10.9-22.9-17.2-34c-18.9-33.1-43.7-60.5-77.3-79.1c-16-8.9-33.4-13.8-51.5-15.9c-71.2-8.3-137.9,35.7-164.5,103.2
		c-15.9,40.3-17.3,81.4-6.6,123.3c5.5,21.4,15.4,40.8,27.4,58.5c9.3,13.8,20.9,27,36,35.6c0.9,1.7,2.3,2.8,4,3.9
		c23.6,15.7,48.8,25.8,77.7,27.6c25.7,1.6,50.2-1,74.4-9.2C530.4,489,539,485.9,547.7,482.9z"/>
	<linearGradient id="SVGID_2_" gradientUnits="userSpaceOnUse" x1="307.5616" y1="241.6799" x2="618.3273" y2="463.8053">
		<stop  offset="0" style="stop-color:#8DC63F"/>
		<stop  offset="1" style="stop-color:#009444"/>
	</linearGradient>
	<path class="st2" d="M514.6,303.4l-1.2,6.9c-2,7.5-4.9,12.7-8.4,19c-3.3,5.2-5.8,11.2-10.1,16.7c-4.3,5.5-8.5,11.3-13.7,16.5
		c-2.9,2.9-5.9,5.6-8.9,8.1c5.2,2.7,7.8,3.2,14.2,6.1c29.3,13.4,30.5,63.5,1.3,87.4c-18.9,15.4-40.8,20-64.4,19.3
		c-20.2-0.6-39-7.1-57.7-13.9c0.9,1.7,2.3,2.8,4,3.9c23.6,15.7,48.8,25.8,77.7,27.6c25.7,1.6,50.2-1,74.4-9.2c8.7-2.9,17.3-6,26-9
		c23.2-17.1,35.7-40.2,34.3-68.8c-2-41.3-29.1-61.6-66.4-72.8c10.8-10.6,20.5-20.9,28.3-32.8c7.6-11.6,14.2-23.8,14.5-38
		c0.8-30.6-13.9-52.6-42.3-65.1c-41.6-18.2-96.4-7.6-131,24.2C338,273.3,324,374.5,397.9,430.9c8.9,6.8,18.1,13.1,29.8,17.5
		c-4.8-7-9.1-12.6-12.9-18.6c-21.8-34.9-29.1-71.5-15.4-111.7c12.1-35.5,49.7-52.5,75.6-49.8c12,1.3,25.5,8.4,23.9,23.4
		c-0.7,6.2-3.2,11.6-6.5,16.6c-10,15.1-23.9,26.1-38.5,36.3c-5.1,3.6-10.4,7-16.4,11.1c7.1,2,10.7,3.5,17.1,5.8
		c2.2-1.6,4.4-2.5,6.7-4.2c4.8-3.5,9.1-7.4,13.3-11.2c6.1-5.6,9.1-8.1,12.6-11.9"/>
	<g>
		<path class="st3" d="M512.3,308.3c0,0-5.4,12.4-8.4,17.3c-3.2,5.1-7,10.4-11.3,15.9c-4.3,5.5-9,10.8-14.1,15.8
			c-5.1,5.1-10.5,9.7-16,13.8c-5.6,4.1-11.2,7.3-16.9,9.7c-5.7,2.3-11.4,3.6-17.1,3.8c-5.7,0.2-11.1-1.2-16.2-4.1
			c-5.7-3.2-9.6-7.2-11.6-12.1c-2-4.9-3-10.2-2.7-15.8c0.2-5.6,1.4-11.3,3.5-17.1c2.1-5.8,4.4-11,7-15.7c4.8-8.7,9.8-16,15-21.8
			c5.2-5.8,10.6-10.5,16.1-13.9c5.5-3.4,10.9-5.8,16.5-7.1c5.5-1.3,11-1.6,16.4-0.9c5.6,0.7,9.5,2.6,11.8,5.6
			c2.3,3,3.2,6.7,2.6,11.1c-0.5,4.4-2.4,9-5.4,14c-3.1,5-7.1,9.7-12.2,14.1c-5.1,4.5-11,8.4-17.8,11.7c-6.8,3.3-14.3,5.6-22.4,6.7
			c-1.5,3.8-2.8,7.5-3.7,11.3c-0.9,3.8-1.5,5.3-0.9,8.7c0.5,3.2,1.3,4,3,5.4c1.3,1.1,3,2.3,5.2,3c3.2,1,6.3,1.1,10.8,0.6
			c4.1-0.5,6.4-1,8.7-1.8c2.9-1.1,10.2-4.1,14.6-7.8c4.4-3.7,9.1-7.5,13.1-11.7c4-4.2,7.2-7.7,10.7-11.7 M435.4,326.4
			c-1,1.6-1.7,3-2.4,4.3c9.4-2,17.3-5.4,23.8-10.2c6.5-4.8,11.5-9.6,15-14.6c3.5-5,5.6-9.4,6.1-13.3c0.6-3.9-0.5-6.1-3.2-6.6
			c-4-0.7-9.6,2.6-16.8,9.8C450.8,303,443.3,313.2,435.4,326.4z"/>
	</g>
</g>
<path class="st0" d="M-364.7,412.9c-6.1,2.1-12.2,4.3-18.3,6.3c-17,5.7-34.3,7.6-52.3,6.5c-20.3-1.3-38.1-8.3-54.7-19.4
	c-1.1-0.8-2.1-1.5-2.8-2.7c13.2,4.8,26.3,9.3,40.6,9.8c16.6,0.5,32-2.7,45.3-13.6c20.6-16.8,20.2-45.3-0.9-61.5
	c-10-7.7-21.4-11.9-34.3-14.9c4.2-2.9,7.9-5.3,11.5-7.8c10.3-7.2,20.1-14.9,27.1-25.5c2.3-3.5,4.1-7.3,4.6-11.7
	c1.1-10.6-8.4-15.6-16.8-16.5C-434,260-460.5,272-469,297c-9.6,28.3-4.5,54,10.8,78.6c2.6,4.2,5.6,8.2,9,13.1
	c-8.3-3.1-14.7-7.5-21-12.3c-52-39.7-42.2-110.9-9-141.4c24.4-22.4,62.9-29.8,92.2-17c20,8.7,30.3,24.2,29.7,45.8
	c-0.2,9.9-4.9,18.5-10.2,26.7c-5.5,8.4-12.3,15.6-19.9,23.1c26.2,7.8,45.3,22.1,46.7,51.2C-339.6,384.6-348.4,400.9-364.7,412.9z"/>
<g>
	<path class="st4" d="M237.3,490.2c-0.2-0.2-0.4-0.6-0.3-0.9l0.2-3.7c2.2-0.2,4.3,0.1,6.4,0.9c2.1,0.8,4.1,2.3,6,4.3
		c1.8,1.8,3,3.8,3.8,5.8s1.1,4.1,1,6.2c-0.1,2.1-0.7,4.2-1.7,6.2c-1,2-2.4,3.9-4.2,5.7c-1.8,1.8-3.8,3.1-6,4s-4.3,1.3-6.5,1.2
		c-2.2,0-4.3-0.5-6.4-1.5c-2.1-1-4.1-2.4-5.9-4.2c-1.8-1.8-3-3.7-3.7-5.6c-0.7-1.9-1.1-3.8-1.1-5.7l3.6-0.5c0.2,0,0.5,0,0.7,0
		s0.5,0.2,0.7,0.4c0.3,0.3,0.4,0.6,0.5,1.1c0.1,0.5,0.2,1,0.3,1.7s0.5,1.4,0.9,2.2c0.4,0.8,1.1,1.7,2,2.7c1.1,1.2,2.3,2,3.7,2.6
		c1.3,0.6,2.7,0.9,4.1,0.8c1.4,0,2.9-0.4,4.3-1c1.4-0.6,2.8-1.6,4.2-2.9c1.4-1.3,2.4-2.7,3.1-4.1c0.7-1.4,1.1-2.8,1.2-4.2
		c0.1-1.4-0.1-2.7-0.6-4c-0.5-1.3-1.2-2.4-2.2-3.5c-0.6-0.6-1.2-1.2-1.7-1.6c-0.6-0.4-1.1-0.8-1.7-1.1c-0.6-0.3-1.1-0.5-1.7-0.7
		c-0.6-0.2-1.2-0.3-2-0.3c-0.2,0-0.4-0.1-0.6-0.1C237.6,490.5,237.4,490.4,237.3,490.2z"/>
	<path class="st4" d="M192.4,474.1l4.1-2.9l8.7,12.4l7.7-5.5l-6.9-9.7l4-2.8l6.9,9.7l7.9-5.6l-8.7-12.4l4.1-2.9l12.4,17.6
		l-27.9,19.7L192.4,474.1z"/>
	<path class="st4" d="M180.7,454.2c-0.1-0.2-0.1-0.4-0.1-0.5s0-0.3,0.1-0.5c0.1-0.2,0.1-0.4,0.3-0.7l12.6-26.1
		c-0.5,0.3-0.9,0.6-1.4,0.8c-0.5,0.3-0.9,0.5-1.3,0.7l-18.7,9.1l-2.5-5l30.7-15l1.4,2.9c0.2,0.5,0.3,0.9,0.3,1.2
		c0,0.4-0.1,0.8-0.3,1.2l-12.6,26c0.4-0.3,0.9-0.5,1.3-0.8c0.4-0.2,0.8-0.4,1.2-0.6l18.8-9.2l2.5,5l-30.7,15l-1.5-3
		C180.8,454.6,180.8,454.4,180.7,454.2z"/>
	<path class="st4" d="M155.6,389.5l5-1.5l2.9,9.8l27.7-8.3l1.8,6.1l-27.7,8.3l3,9.9l-5,1.5L155.6,389.5z"/>
	<path class="st4" d="M171.8,363.1l13.2-1.8l0.9,6.3l-33.8,4.6l-1.4-10.3c-0.3-2.3-0.3-4.3-0.1-6c0.3-1.7,0.7-3.2,1.4-4.3
		c0.7-1.2,1.6-2.1,2.8-2.7c1.1-0.7,2.4-1.1,3.8-1.3c1.1-0.2,2.2-0.1,3.3,0.1c1.1,0.2,2,0.6,3,1.1c0.9,0.5,1.7,1.2,2.5,2
		c0.8,0.8,1.4,1.8,1.9,3c0.3-0.9,0.9-1.6,1.7-2.3l11.3-10.2l0.8,5.7c0.1,0.5,0,1-0.1,1.4c-0.2,0.4-0.4,0.8-0.8,1.1l-9.9,8.6
		c-0.4,0.3-0.6,0.7-0.7,1c-0.1,0.3-0.1,0.8-0.1,1.5L171.8,363.1z M167.3,363.7l-0.5-3.9c-0.2-1.2-0.5-2.2-0.9-3
		c-0.4-0.8-0.9-1.5-1.5-2c-0.6-0.5-1.3-0.8-2-1c-0.8-0.2-1.6-0.2-2.4-0.1c-1.7,0.2-3,1-3.7,2.2s-1,3-0.7,5.4l0.5,4L167.3,363.7z"/>
	<path class="st4" d="M165.6,296.9c2.5,0.1,4.8,0.6,6.9,1.5c2.1,0.9,3.9,2.1,5.4,3.7c1.5,1.6,2.7,3.4,3.5,5.6
		c0.8,2.2,1.2,4.5,1.1,7.1c-0.1,2.6-0.6,4.9-1.5,7c-0.9,2.1-2.2,3.9-3.8,5.4c-1.6,1.5-3.5,2.6-5.6,3.4c-2.2,0.8-4.5,1.1-7,1
		c-2.5-0.1-4.8-0.6-6.9-1.5s-3.9-2.1-5.4-3.7c-1.5-1.6-2.7-3.4-3.5-5.6c-0.8-2.2-1.2-4.5-1.1-7.1c0.1-2.6,0.6-4.9,1.5-7
		c0.9-2.1,2.2-3.9,3.8-5.3c1.6-1.5,3.5-2.6,5.6-3.3C160.7,297.1,163.1,296.8,165.6,296.9z M165.4,303.4c-1.9-0.1-3.6,0.1-5.1,0.6
		c-1.5,0.4-2.8,1.1-3.9,2c-1.1,0.9-1.9,2-2.5,3.3c-0.6,1.3-0.9,2.8-1,4.5c-0.1,1.7,0.2,3.2,0.7,4.5s1.3,2.5,2.3,3.5
		c1,1,2.3,1.7,3.7,2.3c1.5,0.5,3.1,0.9,5,0.9c1.9,0.1,3.6-0.1,5.1-0.6c1.5-0.5,2.8-1.1,3.8-2c1.1-0.9,1.9-2,2.5-3.3s0.9-2.8,1-4.5
		s-0.2-3.2-0.7-4.5s-1.3-2.5-2.3-3.5c-1-1-2.2-1.7-3.7-2.3C168.9,303.8,167.3,303.5,165.4,303.4z"/>
	<path class="st4" d="M180,232.9c2.4,0.7,4.5,1.8,6.3,3.1c1.8,1.4,3.2,3,4.2,4.9c1,1.9,1.6,4,1.8,6.2c0.2,2.3-0.1,4.7-0.8,7.1
		l-3.7,12.5l-32.8-9.6l3.7-12.5c0.7-2.5,1.8-4.6,3.2-6.4c1.4-1.8,3-3.2,4.9-4.2c1.9-1,3.9-1.6,6.2-1.9
		C175.3,232,177.6,232.2,180,232.9z M178.2,239.2c-1.8-0.5-3.5-0.8-5.1-0.7c-1.6,0.1-3,0.4-4.2,1c-1.3,0.6-2.3,1.5-3.2,2.6
		c-0.9,1.1-1.6,2.5-2.1,4.1l-1.9,6.4l23.1,6.8l1.9-6.4c0.5-1.6,0.6-3.1,0.5-4.6c-0.2-1.4-0.6-2.7-1.3-3.9s-1.7-2.2-3-3.1
		C181.5,240.4,180,239.7,178.2,239.2z"/>
	<path class="st4" d="M180.1,191.4l4.6,2.2l-6.5,13.7l8.5,4.1l5.2-10.8l4.4,2.1l-5.2,10.8l8.7,4.2l6.5-13.7l4.6,2.2l-9.3,19.4
		l-30.8-14.8L180.1,191.4z"/>
	<path class="st4" d="M214.1,141.3l4,3.1l-9.3,11.9l7.5,5.8l7.3-9.4l3.9,3l-7.4,9.4l7.6,6l9.3-11.9l4,3.1l-13.3,17l-26.9-21
		L214.1,141.3z"/>
	<path class="st4" d="M260.7,119c1.7,1.8,3,3.8,3.8,5.9c0.8,2.1,1.2,4.2,1.1,6.4c-0.1,2.1-0.6,4.2-1.6,6.3c-1,2.1-2.4,4-4.3,5.7
		l-9.6,8.9l-23.2-25l9.6-8.9c1.9-1.8,3.9-3,6-3.9c2.1-0.8,4.3-1.2,6.4-1.1c2.1,0.1,4.2,0.6,6.3,1.6C257.1,115.8,259,117.2,260.7,119
		z M255.9,123.5c-1.3-1.4-2.6-2.4-4-3.2c-1.4-0.7-2.8-1.2-4.1-1.3c-1.4-0.1-2.8,0.1-4.1,0.6s-2.6,1.3-3.9,2.5l-4.9,4.5l16.4,17.6
		l4.9-4.5c1.2-1.1,2.1-2.4,2.7-3.7c0.6-1.3,0.9-2.7,0.9-4c0-1.4-0.4-2.8-1-4.2C258.2,126.2,257.2,124.8,255.9,123.5z"/>
	<path class="st4" d="M291.5,112c1-0.7,1.8-1.4,2.4-2.3c0.6-0.9,1-1.8,1.1-2.8c0.2-1,0.1-2-0.2-3.1c-0.3-1.1-0.8-2.2-1.5-3.3
		l-11.1-17.2l5.3-3.4l11.1,17.2c1.1,1.7,1.8,3.5,2.2,5.3c0.4,1.8,0.4,3.6,0.1,5.3c-0.4,1.7-1.1,3.3-2.2,4.9
		c-1.1,1.5-2.6,2.9-4.4,4.1c-1.8,1.2-3.7,2-5.5,2.3c-1.8,0.4-3.6,0.3-5.3,0c-1.7-0.4-3.3-1.1-4.8-2.2c-1.5-1.1-2.8-2.5-3.9-4.2
		l-11.1-17.2l5.3-3.4l11.1,17.2c0.7,1.1,1.5,2,2.4,2.7c0.9,0.7,1.8,1.2,2.7,1.4c1,0.3,2,0.3,3,0.1
		C289.4,113.1,290.4,112.6,291.5,112z"/>
	<path class="st4" d="M337.5,85.2c0.3-0.1,0.6-0.1,1,0l3.4,1.5c-0.6,2.1-1.6,4-3.1,5.6c-1.5,1.6-3.5,3-6.2,4.1
		c-2.3,1-4.6,1.5-6.8,1.5c-2.2,0-4.3-0.4-6.2-1.3c-1.9-0.9-3.7-2.1-5.2-3.8c-1.5-1.7-2.8-3.7-3.8-6c-1-2.4-1.6-4.7-1.6-7
		c-0.1-2.3,0.3-4.5,1.1-6.5c0.8-2,2-3.9,3.7-5.5c1.6-1.6,3.6-3,6-4c2.3-1,4.5-1.5,6.6-1.5c2.1,0,4,0.3,5.8,1l-0.8,3.6
		c0,0.2-0.1,0.4-0.3,0.6c-0.1,0.2-0.3,0.4-0.7,0.5c-0.3,0.1-0.7,0.2-1.2,0c-0.5-0.1-1-0.2-1.7-0.3c-0.7-0.1-1.5-0.1-2.4,0
		c-0.9,0.1-2,0.4-3.3,0.9c-1.5,0.6-2.7,1.5-3.7,2.5c-1,1-1.8,2.2-2.2,3.6c-0.5,1.3-0.7,2.8-0.6,4.4c0.1,1.6,0.5,3.2,1.2,4.9
		c0.8,1.8,1.7,3.2,2.8,4.4c1.1,1.2,2.3,2,3.5,2.6c1.3,0.6,2.6,0.9,3.9,0.9c1.4,0,2.7-0.3,4.1-0.9c0.8-0.3,1.5-0.7,2.1-1.1
		c0.6-0.4,1.1-0.8,1.6-1.2c0.5-0.4,0.9-0.9,1.2-1.4c0.4-0.5,0.7-1.1,1-1.7c0.1-0.2,0.2-0.4,0.3-0.5
		C337.1,85.4,337.3,85.3,337.5,85.2z"/>
	<path class="st4" d="M385.2,80.2l-4.8,1.2c-0.5,0.1-1,0.1-1.4-0.1c-0.4-0.2-0.7-0.5-1-0.8l-4.1-6.2l-13.7,3.3l-0.8,7.4
		c0,0.4-0.2,0.8-0.5,1.1c-0.3,0.4-0.7,0.6-1.2,0.8l-4.8,1.2l5-36.4l6.3-1.5L385.2,80.2z M360.7,72.9l10.6-2.6l-6.7-10.1
		c-0.3-0.4-0.6-1-1-1.6c-0.4-0.6-0.8-1.3-1.2-2c0,0.8-0.1,1.6-0.1,2.3c0,0.7-0.1,1.4-0.2,1.9L360.7,72.9z"/>
	<path class="st4" d="M407.4,83.3c0.1,0,0.2,0,0.3,0c0.1,0,0.3,0.1,0.4,0.1c0.2,0,0.3,0.1,0.5,0.1c0.2,0,0.4,0,0.7,0
		c0.5,0,0.9-0.2,1.1-0.4s0.4-0.5,0.3-0.7c0-0.5-0.3-0.8-0.9-0.9c-0.6-0.2-1.5-0.3-2.7-0.3l0.6-3c-2.2-0.1-4.3-0.5-6.1-1.3
		c-1.8-0.8-3.4-1.9-4.8-3.3c-1.4-1.4-2.4-3.1-3.2-5.1c-0.8-2-1.3-4.1-1.5-6.5c-0.2-2.6,0-4.9,0.7-7.1c0.7-2.2,1.7-4.1,3.2-5.8
		c1.4-1.7,3.2-3,5.2-4c2.1-1,4.4-1.6,7-1.8c2.5-0.2,4.8,0,6.7,0.7c2,0.7,3.7,1.6,5.1,2.8l-1.9,3.1c-0.1,0.2-0.3,0.4-0.4,0.5
		c-0.2,0.2-0.5,0.2-0.8,0.3c-0.4,0-0.7-0.1-1.1-0.3c-0.4-0.3-0.9-0.5-1.5-0.8c-0.6-0.3-1.4-0.5-2.3-0.7c-0.9-0.2-2-0.3-3.4-0.2
		c-1.6,0.1-3.1,0.5-4.3,1.2c-1.3,0.7-2.4,1.5-3.3,2.7c-0.9,1.1-1.5,2.4-2,4c-0.4,1.5-0.6,3.2-0.4,5.1c0.1,1.9,0.6,3.6,1.2,5
		c0.7,1.4,1.5,2.6,2.5,3.6c1,0.9,2.2,1.6,3.5,2.1c1.3,0.4,2.7,0.6,4.1,0.5c0.9-0.1,1.6-0.2,2.3-0.3c0.7-0.1,1.3-0.3,1.9-0.6
		c0.6-0.2,1.1-0.6,1.6-0.9c0.5-0.4,1-0.8,1.5-1.3c0.1-0.2,0.3-0.3,0.5-0.4c0.2-0.1,0.4-0.2,0.6-0.2c0.3,0,0.7,0.1,0.9,0.3l2.7,2.5
		c-1.1,1.7-2.6,3.1-4.3,4.1c-1.7,1-3.8,1.7-6.2,1.9l-0.2,1.1c1.4,0.2,2.4,0.6,3.1,1.2c0.6,0.5,0.9,1.2,1,2c0,0.5-0.1,1-0.3,1.4
		c-0.2,0.4-0.6,0.8-1.1,1.2s-1.1,0.6-1.8,0.8c-0.7,0.2-1.5,0.4-2.3,0.4c-0.6,0-1.2,0-1.8,0s-1.1-0.1-1.7-0.3l0.4-1.8
		C406.9,83.5,407.1,83.3,407.4,83.3z"/>
	<path class="st4" d="M465.2,79.5l-4.9-0.4c-0.6,0-1-0.2-1.3-0.5c-0.3-0.3-0.6-0.7-0.7-1.1l-1.9-7.2l-14.1-1.2l-3.1,6.7
		c-0.2,0.4-0.4,0.7-0.8,0.9c-0.4,0.3-0.9,0.4-1.4,0.3l-4.9-0.4l16.3-32.9l6.5,0.6L465.2,79.5z M444.3,64.8l10.8,0.9L452,54
		c-0.1-0.5-0.3-1.1-0.5-1.8c-0.2-0.7-0.3-1.5-0.5-2.3c-0.3,0.8-0.6,1.5-0.8,2.2c-0.3,0.7-0.5,1.3-0.8,1.8L444.3,64.8z M454.9,38.3
		c0.4,0,0.8-0.1,1.1-0.3c0.3-0.2,0.5-0.6,0.5-1.1l3.2,0.3c-0.1,0.8-0.2,1.5-0.5,2.1c-0.3,0.6-0.6,1.1-1,1.6c-0.4,0.4-0.9,0.7-1.5,1
		c-0.6,0.2-1.2,0.3-1.9,0.2c-0.6,0-1.1-0.2-1.6-0.4c-0.5-0.2-1-0.4-1.5-0.7c-0.5-0.2-0.9-0.5-1.3-0.7c-0.4-0.2-0.8-0.3-1.1-0.4
		c-0.4,0-0.8,0.1-1,0.3c-0.3,0.2-0.4,0.6-0.5,1.1l-3.2-0.3c0.1-0.8,0.2-1.5,0.5-2.1c0.3-0.6,0.6-1.2,1-1.6c0.4-0.4,0.9-0.8,1.5-1
		s1.2-0.3,1.9-0.2c0.6,0,1.1,0.2,1.6,0.4c0.5,0.2,1,0.5,1.5,0.7c0.5,0.2,0.9,0.5,1.3,0.7C454.2,38.2,454.6,38.3,454.9,38.3z"/>
	<path class="st4" d="M511.5,73.3c-0.6,2.4-1.6,4.6-3,6.4c-1.4,1.8-3,3.3-4.8,4.4c-1.9,1.1-3.9,1.8-6.2,2.1
		c-2.3,0.3-4.7,0.1-7.2-0.5s-4.7-1.7-6.5-3.1s-3.3-3-4.4-4.9c-1.1-1.9-1.7-4-2-6.3c-0.3-2.3-0.1-4.6,0.6-7c0.6-2.4,1.6-4.6,3-6.4
		c1.4-1.8,3-3.3,4.8-4.4c1.9-1.1,3.9-1.8,6.2-2.1c2.3-0.3,4.7-0.1,7.2,0.6c2.5,0.7,4.7,1.7,6.5,3.1c1.8,1.4,3.3,3,4.3,4.9
		c1.1,1.9,1.7,4,2,6.2C512.3,68.6,512.1,70.9,511.5,73.3z M505.2,71.7c0.5-1.8,0.7-3.5,0.6-5.1c-0.1-1.6-0.5-3-1.1-4.2
		c-0.6-1.2-1.5-2.3-2.7-3.2c-1.1-0.9-2.5-1.5-4.1-2c-1.6-0.4-3.1-0.5-4.6-0.4c-1.4,0.2-2.7,0.7-3.9,1.4c-1.2,0.8-2.2,1.8-3.1,3.1
		c-0.9,1.3-1.5,2.9-2,4.7c-0.5,1.8-0.7,3.5-0.6,5.1c0.1,1.6,0.5,3,1.1,4.2c0.6,1.2,1.5,2.3,2.7,3.2c1.2,0.9,2.5,1.5,4.1,2
		c1.6,0.4,3.1,0.5,4.6,0.4c1.4-0.2,2.7-0.7,3.9-1.4c1.2-0.8,2.2-1.8,3-3.1C504,75,504.7,73.5,505.2,71.7z"/>
	<path class="st4" d="M535.6,102.1l16.6-29.9l10.3,5.7c2,1.1,3.5,2.2,4.7,3.3c1.2,1.1,2,2.3,2.5,3.5c0.5,1.2,0.7,2.4,0.6,3.6
		c-0.1,1.2-0.5,2.4-1.2,3.6c-0.4,0.7-0.9,1.3-1.4,1.8c-0.6,0.5-1.2,0.9-2,1.3c-0.7,0.3-1.6,0.5-2.5,0.6c-0.9,0.1-1.9,0-3-0.2
		c3.6,3.2,4.4,6.6,2.5,10.1c-0.7,1.3-1.6,2.3-2.7,3.1c-1.1,0.8-2.3,1.3-3.6,1.6s-2.8,0.2-4.4-0.1c-1.6-0.3-3.3-0.9-5-1.9
		L535.6,102.1z M548.5,92.1l-4.9,8.8l5.6,3.1c1,0.6,2,0.9,2.8,1.1c0.8,0.1,1.6,0.1,2.2-0.1c0.6-0.2,1.2-0.5,1.7-0.9
		c0.5-0.4,0.9-1,1.3-1.6c0.4-0.6,0.6-1.3,0.7-1.9c0.1-0.6,0-1.3-0.2-1.9c-0.2-0.6-0.6-1.2-1.2-1.8c-0.6-0.6-1.4-1.1-2.3-1.7
		L548.5,92.1z M550.6,88.2l4.4,2.5c1.9,1,3.5,1.5,4.9,1.4c1.4-0.1,2.5-1,3.3-2.5c0.9-1.6,1-2.9,0.5-4.1c-0.5-1.1-1.7-2.2-3.6-3.3
		l-4.7-2.6L550.6,88.2z"/>
	<path class="st4" d="M592.6,140.6l-3.8-3.1c-0.4-0.3-0.7-0.7-0.8-1.2c-0.1-0.4-0.1-0.9,0-1.3l2.3-7l-11.1-8.8l-6.3,3.9
		c-0.3,0.2-0.7,0.3-1.2,0.3c-0.5,0-0.9-0.2-1.3-0.5l-3.9-3.1l31.7-18.4l5.1,4L592.6,140.6z M583.3,116.7l8.5,6.8l3.8-11.5
		c0.2-0.5,0.4-1.1,0.6-1.8c0.2-0.7,0.5-1.4,0.9-2.2c-0.7,0.5-1.3,0.9-1.9,1.4c-0.6,0.4-1.1,0.8-1.6,1L583.3,116.7z M612.9,102.7
		l-8.6-0.4c-0.2,0-0.4,0-0.6-0.1c-0.2,0-0.3-0.1-0.5-0.1c-0.1-0.1-0.3-0.1-0.4-0.2c-0.1-0.1-0.3-0.2-0.5-0.3l-3.6-2.8l6.6-0.9
		c0.3,0,0.5,0,0.7,0c0.2,0,0.4,0,0.6,0.1c0.2,0.1,0.4,0.1,0.6,0.3c0.2,0.1,0.4,0.3,0.7,0.5L612.9,102.7z"/>
	<path class="st4" d="M633.7,143.4c-0.4,0.1-0.7,0.1-0.9,0.1c-0.3-0.1-0.5-0.2-0.7-0.5c-0.2-0.2-0.4-0.6-0.5-1
		c-0.1-0.5-0.2-1-0.4-1.6c-0.1-0.6-0.4-1.2-0.7-1.9c-0.3-0.7-0.8-1.4-1.5-2.1c-0.6-0.6-1.2-1.1-1.8-1.5c-0.6-0.3-1.2-0.5-1.8-0.6
		c-0.6-0.1-1.1,0-1.7,0.2c-0.5,0.2-1,0.5-1.5,0.9c-0.6,0.5-0.9,1.2-1,1.9c-0.1,0.7,0,1.4,0.2,2.2c0.2,0.8,0.6,1.6,1,2.5
		c0.4,0.9,0.8,1.8,1.3,2.8c0.4,1,0.8,1.9,1.1,2.9c0.3,1,0.5,2,0.5,3c0,1-0.2,2-0.6,3c-0.4,1-1.2,2-2.2,3c-1.1,1-2.4,1.8-3.7,2.4
		c-1.3,0.5-2.7,0.8-4.2,0.7c-1.4-0.1-2.8-0.4-4.3-1.1c-1.4-0.7-2.8-1.7-4.1-3.1c-0.7-0.8-1.4-1.7-2-2.6c-0.6-0.9-1-1.9-1.4-2.8
		c-0.4-1-0.6-2-0.8-3c-0.2-1-0.2-2-0.2-2.9l3.5-0.7c0.3,0,0.6,0,0.8,0.1c0.3,0.1,0.5,0.2,0.7,0.4c0.3,0.3,0.4,0.7,0.5,1.3
		c0.1,0.6,0.2,1.2,0.3,1.9c0.1,0.7,0.4,1.5,0.7,2.3c0.3,0.8,0.9,1.7,1.7,2.6c1.2,1.3,2.5,2.1,3.8,2.2c1.3,0.1,2.5-0.3,3.7-1.4
		c0.7-0.6,1-1.3,1.2-2c0.1-0.7,0.1-1.5-0.2-2.3c-0.2-0.8-0.6-1.6-1-2.5c-0.4-0.9-0.9-1.8-1.3-2.7c-0.4-0.9-0.8-1.9-1.1-2.9
		c-0.3-1-0.5-2-0.5-3c0-1,0.3-2.1,0.7-3.1c0.5-1.1,1.3-2.1,2.4-3.2c0.9-0.8,2-1.5,3.2-1.9c1.2-0.4,2.5-0.6,3.8-0.5s2.6,0.4,4,1.1
		c1.3,0.6,2.6,1.6,3.8,2.9c1.4,1.5,2.4,3.1,3.1,4.7c0.7,1.7,1,3.3,1,5L633.7,143.4z"/>
	<path class="st4" d="M627.1,180.3l-3.8-5.1l27.6-20.2l3.8,5.1L627.1,180.3z"/>
	<path class="st4" d="M654.6,210.2c0.2,0.3,0.2,0.6,0.1,1l-1.2,3.5c-2.2-0.4-4.1-1.2-5.9-2.6c-1.8-1.3-3.3-3.2-4.7-5.7
		c-1.2-2.2-1.9-4.4-2.2-6.6c-0.2-2.2,0-4.3,0.7-6.3c0.7-2,1.7-3.8,3.3-5.6c1.5-1.7,3.4-3.2,5.6-4.4c2.2-1.2,4.5-2,6.8-2.3
		c2.3-0.3,4.5-0.1,6.6,0.5c2.1,0.6,4,1.6,5.8,3.1c1.8,1.5,3.3,3.3,4.6,5.6c1.2,2.2,1.9,4.4,2.1,6.4c0.2,2.1,0,4-0.5,5.8l-3.6-0.4
		c-0.2,0-0.5-0.1-0.7-0.2c-0.2-0.1-0.4-0.3-0.6-0.6c-0.2-0.3-0.2-0.7-0.2-1.2c0.1-0.5,0.1-1,0.1-1.7c0-0.7-0.1-1.5-0.3-2.4
		c-0.2-0.9-0.6-2-1.3-3.2c-0.8-1.4-1.7-2.6-2.9-3.5c-1.1-0.9-2.4-1.5-3.8-1.9c-1.4-0.3-2.8-0.4-4.4-0.2c-1.6,0.2-3.2,0.8-4.8,1.7
		c-1.7,0.9-3,2-4.1,3.2c-1.1,1.2-1.8,2.4-2.2,3.8c-0.5,1.3-0.6,2.6-0.5,4c0.1,1.4,0.5,2.7,1.2,4c0.4,0.8,0.8,1.4,1.3,2
		c0.4,0.6,0.9,1.1,1.3,1.5c0.5,0.4,1,0.8,1.5,1.1c0.5,0.3,1.1,0.6,1.8,0.8c0.2,0.1,0.4,0.2,0.5,0.3
		C654.3,209.9,654.5,210.1,654.6,210.2z"/>
	<path class="st4" d="M664.2,257.2l-1.6-4.6c-0.2-0.5-0.2-1-0.1-1.4c0.1-0.4,0.4-0.8,0.7-1.1l5.7-4.7l-4.7-13.4l-7.4-0.1
		c-0.4,0-0.8-0.1-1.2-0.4c-0.4-0.3-0.7-0.6-0.9-1.1l-1.6-4.7l36.7,1.4l2.1,6.1L664.2,257.2z M669.1,232.1l3.6,10.3l9.4-7.7
		c0.4-0.3,0.9-0.7,1.5-1.2c0.6-0.4,1.2-0.9,1.9-1.4c-0.8,0.1-1.6,0.1-2.3,0.1c-0.7,0-1.4,0-1.9,0L669.1,232.1z"/>
	<path class="st4" d="M689.8,314.9c-2.5,0.2-4.8,0-7-0.6c-2.2-0.6-4.1-1.7-5.7-3c-1.6-1.4-3-3.1-4-5.1c-1-2-1.6-4.4-1.9-6.9l-1.2-13
		l34-3l1.2,13c0.2,2.6,0,5-0.6,7.1c-0.7,2.2-1.7,4.1-3,5.7c-1.4,1.6-3.1,3-5.1,4C694.6,314.1,692.3,314.7,689.8,314.9z M689.2,308.4
		c1.9-0.2,3.5-0.6,5-1.2c1.4-0.6,2.6-1.5,3.6-2.5c0.9-1,1.6-2.2,2.1-3.6c0.4-1.4,0.6-2.9,0.4-4.6l-0.6-6.6l-24,2.1l0.6,6.6
		c0.1,1.7,0.6,3.1,1.2,4.4c0.7,1.3,1.6,2.3,2.7,3.2c1.1,0.8,2.4,1.4,4,1.8C685.7,308.5,687.4,308.6,689.2,308.4z"/>
	<path class="st4" d="M670.3,358.2l0.4-4.9c0-0.5,0.2-1,0.5-1.3s0.7-0.6,1.1-0.7l7.1-2l1.1-14.1l-6.7-3.1c-0.4-0.2-0.7-0.4-0.9-0.8
		c-0.3-0.4-0.4-0.9-0.3-1.4l0.4-4.9l33,16l-0.5,6.5L670.3,358.2z M684.9,337.2L684,348l11.6-3.3c0.5-0.1,1.1-0.3,1.8-0.5
		c0.7-0.2,1.5-0.3,2.3-0.5c-0.8-0.3-1.5-0.6-2.2-0.8c-0.7-0.3-1.3-0.5-1.8-0.8L684.9,337.2z"/>
	<path class="st4" d="M664.6,401.8c-0.4,1.2-0.5,2.3-0.5,3.3c0.1,1,0.4,2,0.9,2.9c0.5,0.9,1.2,1.6,2.1,2.3c0.9,0.7,2,1.2,3.2,1.6
		l19.4,6.5l-2,6l-19.4-6.5c-1.9-0.6-3.6-1.6-5-2.7c-1.4-1.2-2.5-2.5-3.3-4.1s-1.3-3.3-1.4-5.2c-0.1-1.9,0.2-3.9,0.9-5.9
		c0.7-2.1,1.7-3.8,2.9-5.3c1.2-1.4,2.6-2.5,4.2-3.3c1.6-0.8,3.3-1.2,5.1-1.2c1.8-0.1,3.7,0.2,5.7,0.9l19.4,6.5l-2,6l-19.4-6.5
		c-1.2-0.4-2.4-0.6-3.5-0.6c-1.1,0-2.1,0.2-3,0.6c-0.9,0.4-1.7,1-2.4,1.8C665.5,399.6,665,400.6,664.6,401.8z"/>
	<path class="st4" d="M669.5,461.8l-4.5-2.3l7-13.4l-8.4-4.4l-5.5,10.6l-4.3-2.3l5.5-10.6l-8.6-4.5l-7,13.4l-4.5-2.4l10-19.1
		l30.3,15.8L669.5,461.8z"/>
	<path class="st4" d="M647,495.1l-4.1-3l8.9-12.3l-8.2-5.9l-7.5,10.4l-4.1-3l7.5-10.4l-11.3-8.1l3.7-5.2l27.7,20L647,495.1z"/>
	<path class="st4" d="M618.2,517.8c-0.1-0.4-0.2-0.7-0.1-0.9c0.1-0.3,0.2-0.5,0.4-0.7c0.2-0.2,0.6-0.4,1-0.5c0.4-0.1,1-0.3,1.6-0.4
		c0.6-0.2,1.2-0.4,1.9-0.8s1.3-0.9,2-1.6c0.6-0.6,1.1-1.3,1.4-1.9c0.3-0.6,0.5-1.2,0.5-1.8c0-0.6-0.1-1.1-0.3-1.7
		c-0.2-0.5-0.6-1-1-1.4c-0.6-0.6-1.2-0.9-1.9-0.9c-0.7,0-1.4,0.1-2.2,0.3c-0.8,0.3-1.6,0.6-2.5,1.1c-0.9,0.5-1.8,1-2.7,1.4
		c-0.9,0.5-1.9,0.9-2.9,1.3c-1,0.4-2,0.6-3,0.6c-1,0.1-2-0.1-3-0.5c-1-0.4-2.1-1-3.1-2c-1.1-1.1-2-2.3-2.6-3.6
		c-0.6-1.3-0.9-2.7-0.9-4.1c0-1.4,0.3-2.9,0.9-4.3c0.6-1.5,1.6-2.9,2.9-4.2c0.8-0.8,1.6-1.5,2.5-2.1s1.8-1.1,2.8-1.6
		c1-0.4,1.9-0.8,2.9-1c1-0.2,1.9-0.3,2.9-0.4l0.9,3.4c0,0.3,0,0.6,0,0.8c-0.1,0.3-0.2,0.5-0.4,0.7c-0.3,0.3-0.7,0.5-1.2,0.6
		c-0.5,0.1-1.2,0.2-1.9,0.4c-0.7,0.2-1.5,0.5-2.3,0.8c-0.8,0.4-1.6,1-2.4,1.9c-1.3,1.3-1.9,2.6-2,3.9c-0.1,1.3,0.5,2.5,1.6,3.6
		c0.6,0.6,1.3,1,2.1,1c0.7,0.1,1.5,0,2.3-0.3c0.8-0.3,1.6-0.6,2.5-1.1c0.8-0.5,1.7-1,2.6-1.5c0.9-0.5,1.8-0.9,2.8-1.3
		c1-0.4,2-0.6,3-0.6c1,0,2.1,0.1,3.2,0.5c1.1,0.4,2.2,1.2,3.3,2.2c0.9,0.9,1.6,1.9,2.1,3.1c0.5,1.2,0.8,2.4,0.8,3.7
		c0,1.3-0.3,2.7-0.8,4.1c-0.6,1.4-1.5,2.7-2.7,4c-1.4,1.5-2.9,2.6-4.5,3.4c-1.6,0.8-3.3,1.2-4.9,1.3L618.2,517.8z"/>
</g>
</svg>
